<svg width="138" height="110" viewBox="0 0 138 110" fill="none" xmlns="http://www.w3.org/2000/svg">
<g clip-path="url(#clip0_11_808)">
<path d="M134.516 52.0471C136.58 50.1358 136.649 47.8228 134.599 46.2023C136.787 44.097 136.607 41.5209 133.851 39.9281L78.7824 8.1278C75.4445 6.20261 69.6135 6.43807 65.7631 8.66796L46.7051 19.679C43.1733 21.715 42.5362 24.7205 45.0292 26.6872C43.0348 28.5986 43.0071 30.9116 45.1123 32.5182C42.827 34.6234 42.9655 37.255 45.7633 38.8616L100.832 70.648C104.17 72.5732 110.001 72.3378 113.851 70.1079L132.909 59.1108C136.483 57.0471 137.106 54.0139 134.516 52.0471Z" fill="#00C5F6"/>
<path d="M134.516 51.9639C136.579 50.0525 136.649 47.7395 134.599 46.1191C136.787 44.0138 136.607 41.4377 133.851 39.8449L131.87 38.6953L106.497 54.0276V71.8529C109.059 71.8529 111.76 71.2573 113.865 70.0385L132.923 59.0414C136.496 56.9777 137.106 53.9306 134.516 51.9639Z" fill="#060607"/>
<path d="M132.618 58.6122L113.56 69.6093C111.538 70.7727 108.948 71.3544 106.497 71.3544V72.5456C109.17 72.5456 111.967 71.8946 114.156 70.6342L133.214 59.6371C135.43 58.3629 136.704 56.6177 136.704 54.8726C136.704 53.82 136.219 52.8504 135.374 52.0333C136.233 51.0776 136.718 50.025 136.718 48.9585C136.718 47.9336 136.261 46.9918 135.444 46.1885C136.261 45.2605 136.704 44.2356 136.704 43.2106C136.704 41.978 136.081 40.8561 134.931 39.9697C134.668 40.2605 134.377 40.5375 134.045 40.8007C134.987 41.4794 135.527 42.3242 135.527 43.2106C135.527 44.5264 134.474 45.8976 132.632 46.9502L113.574 57.9474C111.552 59.1108 108.962 59.6925 106.51 59.6925V60.8836C109.184 60.8836 111.981 60.2327 114.17 58.9723L133.228 47.9751C133.74 47.6843 134.197 47.3519 134.599 47.0195C135.194 47.6012 135.541 48.266 135.541 48.9724C135.541 50.2881 134.488 51.6593 132.646 52.7119L113.588 63.7091C111.566 64.8725 108.976 65.4542 106.524 65.4542V66.6453C109.197 66.6453 111.995 65.9944 114.183 64.734L133.241 53.7369C133.712 53.4599 134.128 53.169 134.516 52.8643C135.167 53.4599 135.541 54.1524 135.541 54.8864C135.499 56.1745 134.446 57.5457 132.618 58.6122Z" fill="#00C5F6"/>
<path d="M106.497 71.3548C104.475 71.3548 102.549 70.9807 101.123 70.1497L46.0541 38.3496C44.7937 37.6155 44.1012 36.646 44.1012 35.5933C44.1012 34.8177 44.5028 34.0144 45.1954 33.2803C45.2923 33.3357 45.3754 33.405 45.4862 33.4604L100.555 65.2467C102.148 66.1608 104.281 66.618 106.511 66.618V65.4268C104.502 65.4268 102.577 65.0529 101.151 64.2219L46.0679 32.4493C44.8075 31.7153 44.115 30.7457 44.115 29.6931C44.115 28.9452 44.4751 28.1834 45.1123 27.4771C45.2369 27.5602 45.3477 27.6433 45.4862 27.7125L100.555 59.4988C102.148 60.413 104.281 60.87 106.511 60.87H106.524V59.6789C104.502 59.6789 102.577 59.305 101.151 58.474L46.0541 26.6876C44.7937 25.9535 44.1012 24.984 44.1012 23.9314C44.1012 23.0034 44.6413 22.0478 45.6109 21.189C45.2508 20.9674 44.9183 20.7181 44.6552 20.4688C43.5472 21.5215 42.9239 22.7264 42.9239 23.9314C42.9239 24.9702 43.3671 25.9258 44.1981 26.743C43.3948 27.671 42.9378 28.6682 42.9378 29.6931C42.9378 30.7596 43.4087 31.7429 44.2674 32.56C43.4225 33.5019 42.9239 34.5407 42.9239 35.5933C42.9239 37.0753 43.8242 38.4187 45.4724 39.3744L100.541 71.1609C102.134 72.075 104.267 72.5321 106.497 72.5321H106.511V71.3548H106.497Z" fill="#060607"/>
<path d="M100.832 52.7261L45.7632 20.9397C42.4253 19.0145 42.8547 15.6489 46.7051 13.419L65.7631 2.42187C69.6134 0.191977 75.4444 -0.0434781 78.7823 1.88171L133.851 33.6681C137.189 35.5933 136.774 38.9589 132.909 41.1888L113.851 52.186C110.001 54.4159 104.17 54.6652 100.832 52.7261Z" fill="#00C5F6"/>
<path d="M133.477 36.0638L78.4084 4.26355C75.0705 2.33836 69.2395 2.57381 65.3891 4.80371L46.3311 15.8146C44.9461 16.618 44.0043 17.5598 43.5334 18.5432C43.8104 19.4434 44.5029 20.2883 45.6525 20.9531L100.721 52.7395C104.059 54.6647 109.89 54.4293 113.74 52.1994L132.798 41.2022C134.184 40.3989 135.125 39.4571 135.596 38.4737C135.319 37.5596 134.627 36.7286 133.477 36.0638Z" fill="#FBFBFD"/>
<path d="M106.483 54.6096C104.253 54.6096 102.12 54.1525 100.527 53.2384L45.4723 21.452C43.8241 20.5102 42.9239 19.1667 42.9239 17.6709C42.9239 15.9257 44.1981 14.1806 46.4141 12.9064L65.4721 1.90922C69.4887 -0.403782 75.5967 -0.653088 79.087 1.36906L134.156 33.1555C135.804 34.0973 136.704 35.4408 136.704 36.9366C136.704 38.6817 135.43 40.4269 133.214 41.7011L114.156 52.6982C111.968 53.9725 109.156 54.6096 106.483 54.6096ZM101.123 52.2273C104.294 54.0556 109.876 53.8201 113.56 51.6872L132.618 40.69C134.46 39.6236 135.513 38.2662 135.513 36.9505C135.513 35.8978 134.821 34.9283 133.56 34.1943L78.4914 2.39398C75.3197 0.565738 69.738 0.801193 66.0538 2.93414L46.9958 13.9313C45.1538 14.9977 44.1011 16.3551 44.1011 17.6709C44.1011 18.7235 44.7936 19.693 46.054 20.4271L101.123 52.2273Z" fill="#060607"/>
<path d="M122.327 39.0976C119.488 37.4494 119.488 34.7902 122.327 33.1558C122.618 32.9896 122.923 32.8511 123.242 32.7265L80.0147 7.78208C79.7931 7.96213 79.5577 8.14219 79.2807 8.30839C76.4414 9.95657 71.8292 9.95657 68.9899 8.30839C68.4913 8.01753 68.1035 7.68513 67.7711 7.33887L55.1396 14.638C55.7352 14.8319 56.303 15.0396 56.8155 15.3443C59.6548 16.9925 59.6548 19.6518 56.8155 21.2861C56.5523 21.4246 56.2753 21.5354 55.9983 21.6601L99.1974 46.6045C99.4052 46.4383 99.6129 46.2859 99.8622 46.1335C102.702 44.4854 107.314 44.4854 110.153 46.1335C110.652 46.4244 111.039 46.7568 111.372 47.1031L124.003 39.8178C123.394 39.6101 122.826 39.3885 122.327 39.0976Z" fill="#00C5F6"/>
<path d="M111.247 47.8372L110.929 47.491C110.596 47.1308 110.25 46.8538 109.848 46.6322C107.175 45.081 102.812 45.0948 100.139 46.6322C99.9315 46.743 99.7653 46.8815 99.5991 47.0062L99.2806 47.2555L98.8789 47.1031L54.6826 21.5771L55.763 21.1061C56.0815 20.9676 56.3031 20.8707 56.5109 20.7599C57.6882 20.0812 58.353 19.2087 58.353 18.2945C58.353 17.3943 57.702 16.5217 56.5109 15.8292C56.0954 15.5937 55.6106 15.386 54.9597 15.1782L53.6854 14.7766L67.882 6.57715L68.2005 6.92341C68.5329 7.28352 68.8792 7.56052 69.2809 7.78213C71.954 9.33336 76.303 9.33336 78.9899 7.78213C79.2531 7.62977 79.4608 7.46357 79.6686 7.31122L79.9594 7.06191L124.557 32.8096L123.449 33.2667C123.158 33.3914 122.868 33.516 122.604 33.6684C121.413 34.347 120.762 35.2334 120.762 36.1337C120.762 37.034 121.413 37.9065 122.604 38.5991C123.02 38.8345 123.505 39.0423 124.156 39.25L125.444 39.6517L111.247 47.8372ZM105.001 44.3192C106.967 44.3192 108.948 44.7486 110.444 45.6212C110.818 45.8289 111.136 46.0782 111.455 46.3691L122.618 39.9287C122.411 39.8317 122.217 39.7348 122.037 39.624C120.472 38.7237 119.613 37.4772 119.613 36.1337C119.613 34.8041 120.458 33.5853 121.981 32.685L80.0702 8.48849C79.9179 8.59929 79.7517 8.7101 79.5716 8.8209C76.5661 10.5522 71.6908 10.5522 68.6853 8.8209C68.3113 8.61314 67.9928 8.36384 67.6742 8.07298L56.5109 14.5134C56.7186 14.6104 56.9125 14.7073 57.1064 14.8181C58.6715 15.7184 59.5302 16.9649 59.5302 18.3084C59.5302 19.6103 58.7269 20.8014 57.2449 21.7017L99.1421 45.8843C99.2806 45.7874 99.4052 45.6904 99.5576 45.6073C101.053 44.7486 103.034 44.3192 105.001 44.3192Z" fill="#060607"/>
<path d="M98.1033 31.2862C93.5189 33.9316 86.0813 33.9316 81.5107 31.2862C76.9262 28.6408 76.9262 24.3472 81.5107 21.7018C86.0951 19.0564 93.5327 19.0564 98.1033 21.7018C102.688 24.3472 102.688 28.6408 98.1033 31.2862Z" fill="#00C5F6"/>
<path d="M98.1033 33.4874C93.5189 36.1328 86.0813 36.1328 81.5107 33.4874C76.9262 30.842 76.9262 26.5484 81.5107 23.903C86.0951 21.2576 93.5327 21.2576 98.1033 23.903C102.688 26.5484 102.688 30.842 98.1033 33.4874Z" fill="#FBFBFD"/>
<path d="M89.807 33.8478C86.6907 33.8478 83.5882 33.1691 81.206 31.798C78.796 30.4129 77.4664 28.5293 77.4664 26.4933C77.4664 24.4573 78.796 22.5737 81.206 21.1886C85.9428 18.4463 93.6574 18.4463 98.3942 21.1886C100.804 22.5737 102.134 24.4573 102.134 26.4933C102.134 28.5293 100.804 30.4129 98.3942 31.798C96.0258 33.1691 92.9095 33.8478 89.807 33.8478ZM89.807 20.3022C86.9123 20.3022 84.0037 20.9393 81.8015 22.2136C79.7794 23.3908 78.6575 24.9005 78.6575 26.4933C78.6575 28.0861 79.7794 29.6096 81.8015 30.773C86.2198 33.3215 93.3942 33.3215 97.8125 30.773C99.8346 29.5958 100.956 28.0861 100.956 26.4933C100.956 24.9005 99.8346 23.377 97.8125 22.2136C95.5964 20.9393 92.7017 20.3022 89.807 20.3022Z" fill="#060607"/>
<path d="M110.763 81.1877C111.528 81.1877 112.148 80.8281 112.148 80.3844C112.148 79.9407 111.528 79.5811 110.763 79.5811C109.998 79.5811 109.378 79.9407 109.378 80.3844C109.378 80.8281 109.998 81.1877 110.763 81.1877Z" fill="#060607"/>
<path d="M116.885 76.8389C117.425 77.1574 117.425 77.6561 116.885 77.9746C116.344 78.2932 115.458 78.2932 114.918 77.9746C114.378 77.6561 114.378 77.1574 114.918 76.8389C115.472 76.5342 116.344 76.5342 116.885 76.8389Z" fill="#060607"/>
<path d="M122.037 73.8757C122.577 74.1942 122.577 74.6929 122.037 75.0114C121.497 75.33 120.61 75.33 120.07 75.0114C119.53 74.6929 119.53 74.1942 120.07 73.8757C120.61 73.5571 121.483 73.5571 122.037 73.8757Z" fill="#060607"/>
<path d="M127.175 70.9117C127.716 71.2303 127.716 71.7289 127.175 72.0474C126.635 72.366 125.749 72.366 125.209 72.0474C124.668 71.7289 124.668 71.2303 125.209 70.9117C125.749 70.5932 126.635 70.5932 127.175 70.9117Z" fill="#060607"/>
<path d="M132.314 67.9337C132.854 68.2522 132.854 68.7508 132.314 69.0694C131.773 69.3879 130.887 69.3879 130.347 69.0694C129.807 68.7508 129.807 68.2522 130.347 67.9337C130.901 67.6289 131.773 67.6289 132.314 67.9337Z" fill="#060607"/>
<path d="M137.466 64.9693C138.006 65.2879 138.006 65.7865 137.466 66.105C136.926 66.4236 136.04 66.4236 135.499 66.105C134.959 65.7865 134.959 65.2879 135.499 64.9693C136.04 64.6508 136.912 64.6508 137.466 64.9693Z" fill="#060607"/>
<path d="M100.472 81.1877C101.237 81.1877 101.857 80.8281 101.857 80.3844C101.857 79.9407 101.237 79.5811 100.472 79.5811C99.7069 79.5811 99.0868 79.9407 99.0868 80.3844C99.0868 80.8281 99.7069 81.1877 100.472 81.1877Z" fill="#060607"/>
<path d="M106.608 76.8389C107.148 77.1574 107.148 77.6561 106.608 77.9746C106.067 78.2932 105.181 78.2932 104.641 77.9746C104.101 77.6561 104.101 77.1574 104.641 76.8389C105.181 76.5342 106.067 76.5342 106.608 76.8389Z" fill="#060607"/>
<path d="M111.746 73.8757C112.286 74.1942 112.286 74.6929 111.746 75.0114C111.206 75.33 110.319 75.33 109.779 75.0114C109.239 74.6929 109.239 74.1942 109.779 73.8757C110.319 73.5571 111.206 73.5571 111.746 73.8757Z" fill="#060607"/>
<path d="M116.885 70.9117C117.425 71.2303 117.425 71.7289 116.885 72.0474C116.344 72.366 115.458 72.366 114.918 72.0474C114.378 71.7289 114.378 71.2303 114.918 70.9117C115.472 70.5932 116.344 70.5932 116.885 70.9117Z" fill="#060607"/>
<path d="M122.037 67.9337C122.577 68.2522 122.577 68.7508 122.037 69.0694C121.497 69.3879 120.61 69.3879 120.07 69.0694C119.53 68.7508 119.53 68.2522 120.07 67.9337C120.61 67.6289 121.483 67.6289 122.037 67.9337Z" fill="#060607"/>
<path d="M127.175 64.9693C127.716 65.2879 127.716 65.7865 127.175 66.105C126.635 66.4236 125.749 66.4236 125.209 66.105C124.668 65.7865 124.668 65.2879 125.209 64.9693C125.749 64.6508 126.635 64.6508 127.175 64.9693Z" fill="#060607"/>
<path d="M132.314 61.9922C132.854 62.3108 132.854 62.8094 132.314 63.1279C131.773 63.4465 130.887 63.4465 130.347 63.1279C129.807 62.8094 129.807 62.3108 130.347 61.9922C130.901 61.6875 131.773 61.6875 132.314 61.9922Z" fill="#060607"/>
<path d="M137.466 59.028C138.006 59.3465 138.006 59.8451 137.466 60.1637C136.926 60.4822 136.04 60.4822 135.499 60.1637C134.959 59.8451 134.959 59.3465 135.499 59.028C136.04 58.7094 136.912 58.7094 137.466 59.028Z" fill="#060607"/>
<path d="M96.3168 76.8389C96.857 77.1574 96.857 77.6561 96.3168 77.9746C95.7766 78.2932 94.8902 78.2932 94.3501 77.9746C93.8099 77.6561 93.8099 77.1574 94.3501 76.8389C94.8902 76.5342 95.7766 76.5342 96.3168 76.8389Z" fill="#060607"/>
<path d="M100.472 75.2463C101.237 75.2463 101.857 74.8866 101.857 74.443C101.857 73.9993 101.237 73.6396 100.472 73.6396C99.7069 73.6396 99.0868 73.9993 99.0868 74.443C99.0868 74.8866 99.7069 75.2463 100.472 75.2463Z" fill="#060607"/>
<path d="M91.1368 73.8473C91.6769 74.1658 91.6769 74.6645 91.1368 74.983C90.5966 75.3016 89.7102 75.3016 89.17 74.983C88.6299 74.6645 88.6299 74.1658 89.17 73.8473C89.7102 73.5287 90.5827 73.5287 91.1368 73.8473Z" fill="#060607"/>
<path d="M96.2753 70.8691C96.8154 71.1876 96.8154 71.6864 96.2753 72.0049C95.7351 72.3235 94.8487 72.3235 94.3085 72.0049C93.7684 71.6864 93.7684 71.1876 94.3085 70.8691C94.8487 70.5644 95.7351 70.5644 96.2753 70.8691Z" fill="#060607"/>
<path d="M85.9845 70.8691C86.5247 71.1876 86.5247 71.6864 85.9845 72.0049C85.4444 72.3235 84.558 72.3235 84.0178 72.0049C83.4776 71.6864 83.4776 71.1876 84.0178 70.8691C84.558 70.5644 85.4444 70.5644 85.9845 70.8691Z" fill="#060607"/>
<path d="M91.1368 67.9059C91.6769 68.2244 91.6769 68.723 91.1368 69.0416C90.5966 69.3602 89.7102 69.3602 89.17 69.0416C88.6299 68.723 88.6299 68.2244 89.17 67.9059C89.7102 67.5873 90.5827 67.5873 91.1368 67.9059Z" fill="#060607"/>
<path d="M80.846 67.9059C81.3862 68.2244 81.3862 68.723 80.846 69.0416C80.3058 69.3602 79.4194 69.3602 78.8793 69.0416C78.3391 68.723 78.3391 68.2244 78.8793 67.9059C79.4194 67.5873 80.3058 67.5873 80.846 67.9059Z" fill="#060607"/>
<path d="M85.9845 64.9421C86.5247 65.2607 86.5247 65.7593 85.9845 66.0778C85.4444 66.3964 84.558 66.3964 84.0178 66.0778C83.4776 65.7593 83.4776 65.2607 84.0178 64.9421C84.558 64.6235 85.4444 64.6235 85.9845 64.9421Z" fill="#060607"/>
<path d="M75.7077 64.9421C76.2479 65.2607 76.2479 65.7593 75.7077 66.0778C75.1675 66.3964 74.2811 66.3964 73.741 66.0778C73.2008 65.7593 73.2008 65.2607 73.741 64.9421C74.2811 64.6235 75.1537 64.6235 75.7077 64.9421Z" fill="#060607"/>
<path d="M80.846 61.9639C81.3862 62.2824 81.3862 62.781 80.846 63.0996C80.3058 63.4182 79.4194 63.4182 78.8793 63.0996C78.3391 62.781 78.3391 62.2824 78.8793 61.9639C79.4194 61.6592 80.3058 61.6592 80.846 61.9639Z" fill="#060607"/>
<path d="M70.5553 61.9639C71.0954 62.2824 71.0954 62.781 70.5553 63.0996C70.0151 63.4182 69.1287 63.4182 68.5885 63.0996C68.0484 62.781 68.0484 62.2824 68.5885 61.9639C69.1287 61.6592 70.0151 61.6592 70.5553 61.9639Z" fill="#060607"/>
<path d="M75.7077 58.9996C76.2479 59.3182 76.2479 59.8168 75.7077 60.1354C75.1675 60.4539 74.2811 60.4539 73.741 60.1354C73.2008 59.8168 73.2008 59.3182 73.741 58.9996C74.2811 58.6811 75.1537 58.6811 75.7077 58.9996Z" fill="#060607"/>
<path d="M65.4167 58.9996C65.9569 59.3182 65.9569 59.8168 65.4167 60.1354C64.8766 60.4539 63.9901 60.4539 63.45 60.1354C62.9098 59.8168 62.9098 59.3182 63.45 58.9996C63.9901 58.6811 64.8766 58.6811 65.4167 58.9996Z" fill="#060607"/>
<path d="M70.5553 56.0225C71.0954 56.341 71.0954 56.8396 70.5553 57.1582C70.0151 57.4768 69.1287 57.4768 68.5885 57.1582C68.0484 56.8396 68.0484 56.341 68.5885 56.0225C69.1287 55.7178 70.0151 55.7178 70.5553 56.0225Z" fill="#060607"/>
<path d="M60.2784 56.0225C60.8186 56.341 60.8186 56.8396 60.2784 57.1582C59.7383 57.4768 58.8518 57.4768 58.3117 57.1582C57.7715 56.8396 57.7715 56.341 58.3117 56.0225C58.8518 55.7178 59.7244 55.7178 60.2784 56.0225Z" fill="#060607"/>
<path d="M65.4167 53.0583C65.9569 53.3768 65.9569 53.8755 65.4167 54.194C64.8766 54.5126 63.9901 54.5126 63.45 54.194C62.9098 53.8755 62.9098 53.3768 63.45 53.0583C63.9901 52.7397 64.8766 52.7397 65.4167 53.0583Z" fill="#060607"/>
<path d="M55.126 53.0583C55.6661 53.3768 55.6661 53.8755 55.126 54.194C54.5858 54.5126 53.6994 54.5126 53.1592 54.194C52.6191 53.8755 52.6191 53.3768 53.1592 53.0583C53.6994 52.7397 54.5858 52.7397 55.126 53.0583Z" fill="#060607"/>
<path d="M60.2784 50.0944C60.8186 50.413 60.8186 50.9116 60.2784 51.2301C59.7383 51.5487 58.8518 51.5487 58.3117 51.2301C57.7715 50.9116 57.7715 50.413 58.3117 50.0944C58.8518 49.7758 59.7244 49.7758 60.2784 50.0944Z" fill="#060607"/>
<path d="M49.9462 50.0527C50.4863 50.3713 50.4863 50.8699 49.9462 51.1885C49.406 51.507 48.5196 51.507 47.9794 51.1885C47.4393 50.8699 47.4393 50.3713 47.9794 50.0527C48.5196 49.748 49.406 49.748 49.9462 50.0527Z" fill="#060607"/>
<path d="M54.1012 48.4602C54.8662 48.4602 55.4863 48.1005 55.4863 47.6569C55.4863 47.2132 54.8662 46.8535 54.1012 46.8535C53.3363 46.8535 52.7162 47.2132 52.7162 47.6569C52.7162 48.1005 53.3363 48.4602 54.1012 48.4602Z" fill="#060607"/>
<path d="M44.7937 47.0886C45.3339 47.4072 45.3339 47.9058 44.7937 48.2243C44.2536 48.5429 43.3671 48.5429 42.827 48.2243C42.2868 47.9058 42.2868 47.4072 42.827 47.0886C43.381 46.77 44.2536 46.77 44.7937 47.0886Z" fill="#060607"/>
<path d="M48.9627 45.4962C49.7276 45.4962 50.3477 45.1366 50.3477 44.6929C50.3477 44.2492 49.7276 43.8896 48.9627 43.8896C48.1978 43.8896 47.5777 44.2492 47.5777 44.6929C47.5777 45.1366 48.1978 45.4962 48.9627 45.4962Z" fill="#060607"/>
<path d="M44.7937 41.1475C45.3339 41.466 45.3339 41.9646 44.7937 42.2832C44.2536 42.6018 43.3671 42.6018 42.827 42.2832C42.2868 41.9646 42.2868 41.466 42.827 41.1475C43.381 40.8428 44.2536 40.8428 44.7937 41.1475Z" fill="#060607"/>
<path d="M90.8677 87.5911C88.4178 83.3595 81.8954 80.3369 74.2065 80.3369C66.5175 80.3369 59.9951 83.3595 57.5453 87.5911H56.4953V91.2818C56.4953 97.3269 64.4282 102.226 74.2065 102.226C83.9953 102.226 91.9176 97.3269 91.9176 91.2818V87.5911H90.8677Z" fill="#00C5F6"/>
<path d="M74.2065 102.513C64.2797 102.513 56.209 97.4746 56.209 91.281V87.3039H57.3862C60.0163 82.9557 66.7402 80.0498 74.2065 80.0498C81.6727 80.0498 88.3966 82.9557 91.0268 87.3039H92.204V91.281C92.204 97.4746 84.1332 102.513 74.2065 102.513ZM56.7711 87.8766V91.281C56.7711 97.167 64.5873 101.95 74.2065 101.95C83.815 101.95 91.6419 97.167 91.6419 91.281V87.8766H90.7086L90.6237 87.7387C88.1527 83.4859 81.5561 80.6225 74.2065 80.6225C66.8569 80.6225 60.2603 83.4859 57.7892 87.7387L57.7044 87.8766H56.7711Z" fill="#16110D"/>
<path d="M74.2065 98.5352C83.9881 98.5352 91.9176 93.635 91.9176 87.5903C91.9176 81.5457 83.9881 76.6455 74.2065 76.6455C64.4249 76.6455 56.4953 81.5457 56.4953 87.5903C56.4953 93.635 64.4249 98.5352 74.2065 98.5352Z" fill="#00C5F6"/>
<path d="M91.9176 88.4605C91.9176 94.5056 83.9847 99.4053 74.2065 99.4053C64.4176 99.4053 56.4953 94.5056 56.4953 88.4605C56.4953 82.4153 64.4282 77.5156 74.2065 77.5156C83.9953 77.5156 91.9176 82.4153 91.9176 88.4605Z" fill="#FBFBFD"/>
<path d="M74.2065 98.8218C64.2797 98.8218 56.209 93.7842 56.209 87.5906C56.209 81.397 64.2797 76.3594 74.2065 76.3594C84.1332 76.3594 92.204 81.397 92.204 87.5906C92.204 93.7842 84.1332 98.8218 74.2065 98.8218ZM74.2065 76.9215C64.5979 76.9215 56.7711 81.7046 56.7711 87.5906C56.7711 93.4766 64.5873 98.2597 74.2065 98.2597C83.815 98.2597 91.6419 93.4766 91.6419 87.5906C91.6419 81.7046 83.815 76.9215 74.2065 76.9215Z" fill="#16110D"/>
<path d="M74.2065 95.3432C82.0201 95.3432 88.3542 91.6538 88.3542 87.1028C88.3542 82.5517 82.0201 78.8623 74.2065 78.8623C66.3929 78.8623 60.0588 82.5517 60.0588 87.1028C60.0588 91.6538 66.3929 95.3432 74.2065 95.3432Z" fill="#00C5F6"/>
<path d="M74.2065 95.6193C66.2524 95.6193 59.7725 91.8013 59.7725 87.1031C59.7725 82.4049 66.2418 78.5869 74.2065 78.5869C82.1606 78.5869 88.6406 82.4049 88.6406 87.1031C88.6406 91.8013 82.1606 95.6193 74.2065 95.6193ZM74.2065 79.149C66.56 79.149 60.3452 82.7124 60.3452 87.1031C60.3452 91.4938 66.56 95.0572 74.2065 95.0572C81.8531 95.0572 88.0679 91.4938 88.0679 87.1031C88.0679 82.7124 81.8531 79.149 74.2065 79.149Z" fill="#16110D"/>
<path d="M74.2065 78.8623C66.3903 78.8623 60.0588 82.553 60.0588 87.1028C60.0588 87.5164 60.1224 87.9088 60.2285 88.3012C61.2254 84.3241 67.1008 81.2591 74.2065 81.2591C81.3122 81.2591 87.1876 84.3135 88.1845 88.3012C88.28 87.9088 88.3542 87.5058 88.3542 87.1028C88.3542 82.553 82.0227 78.8623 74.2065 78.8623Z" fill="#00C5F6"/>
<path d="M88.0148 88.8848L87.9088 88.3652C86.9331 84.4729 81.0364 81.5458 74.2065 81.5458C67.366 81.5458 61.4799 84.4836 60.5042 88.3652L60.3452 89.0015L59.9528 88.3758C59.8361 87.8985 59.7725 87.4955 59.7725 87.1031C59.7725 82.4049 66.2418 78.5869 74.2065 78.5869C82.1606 78.5869 88.6406 82.4049 88.6406 87.1031C88.6406 87.4849 88.5875 87.8879 88.4709 88.3758L88.0148 88.8848ZM74.2065 79.149C66.56 79.149 60.3452 82.7124 60.3452 87.1031C60.3452 87.1243 60.3452 87.1349 60.3452 87.1561C62.0738 83.5185 67.6417 80.9837 74.2065 80.9837C80.7713 80.9837 86.3392 83.5185 88.0679 87.1561C88.0679 87.1349 88.0679 87.1243 88.0679 87.1031C88.0679 82.7124 81.8531 79.149 74.2065 79.149Z" fill="#16110D"/>
<path d="M71.8627 79.0537V81.3763L67.9068 82.1187L64.0252 83.7837L61.2254 86.2442L60.2285 88.3017L60.0588 86.2442L61.2572 83.7837L63.3783 81.8005L66.8887 80.0506L71.1839 79.0537H71.8627Z" fill="#191410"/>
<path d="M76.2003 98.4715V102.226L80.4001 101.548L84.4408 100.349L88.6405 97.6866L91.2177 94.4626L91.9176 92.2991L91.8646 89.3613L89.8814 93.0945L85.9361 95.7989L79.9971 97.9412L76.2003 98.4715Z" fill="#16110D"/>
<path d="M73.5701 98.5779V102.269L71.8627 102.131V98.2598L73.5701 98.5779Z" fill="#16110D"/>
<path d="M82.7229 108.918C83.1472 109.162 83.1472 109.565 82.7229 109.809C82.2987 110.053 81.5988 110.053 81.1745 109.809C80.7503 109.565 80.7503 109.162 81.1745 108.918C81.5988 108.674 82.2881 108.674 82.7229 108.918Z" fill="#16110D"/>
<path d="M86.7742 106.574C87.1985 106.818 87.1985 107.221 86.7742 107.465C86.35 107.709 85.6501 107.709 85.2258 107.465C84.8016 107.221 84.8016 106.818 85.2258 106.574C85.6501 106.331 86.3394 106.331 86.7742 106.574Z" fill="#16110D"/>
<path d="M90.0511 105.323C90.6544 105.323 91.1435 105.038 91.1435 104.687C91.1435 104.335 90.6544 104.05 90.0511 104.05C89.4478 104.05 88.9588 104.335 88.9588 104.687C88.9588 105.038 89.4478 105.323 90.0511 105.323Z" fill="#16110D"/>
<path d="M94.8766 101.897C95.3009 102.141 95.3009 102.544 94.8766 102.788C94.4524 103.032 93.7525 103.032 93.3283 102.788C92.904 102.544 92.904 102.141 93.3283 101.897C93.7525 101.653 94.4418 101.653 94.8766 101.897Z" fill="#16110D"/>
<path d="M74.6098 108.918C75.034 109.162 75.034 109.565 74.6098 109.809C74.1855 110.053 73.4856 110.053 73.0614 109.809C72.6371 109.565 72.6371 109.162 73.0614 108.918C73.4962 108.674 74.1855 108.674 74.6098 108.918Z" fill="#16110D"/>
<path d="M78.6609 106.574C79.0851 106.818 79.0851 107.221 78.6609 107.465C78.2366 107.709 77.5367 107.709 77.1125 107.465C76.6882 107.221 76.6882 106.818 77.1125 106.574C77.5473 106.331 78.2366 106.331 78.6609 106.574Z" fill="#16110D"/>
<path d="M82.7229 104.241C83.1472 104.485 83.1472 104.888 82.7229 105.132C82.2987 105.376 81.5988 105.376 81.1745 105.132C80.7503 104.888 80.7503 104.485 81.1745 104.241C81.5988 103.987 82.2881 103.987 82.7229 104.241Z" fill="#16110D"/>
<path d="M86 102.979C86.6033 102.979 87.0924 102.694 87.0924 102.343C87.0924 101.991 86.6033 101.707 86 101.707C85.3968 101.707 84.9077 101.991 84.9077 102.343C84.9077 102.694 85.3968 102.979 86 102.979Z" fill="#16110D"/>
<path d="M90.0511 100.646C90.6544 100.646 91.1435 100.361 91.1435 100.01C91.1435 99.6579 90.6544 99.373 90.0511 99.373C89.4478 99.373 88.9588 99.6579 88.9588 100.01C88.9588 100.361 89.4478 100.646 90.0511 100.646Z" fill="#16110D"/>
<path d="M94.1024 98.3019C94.7057 98.3019 95.1948 98.017 95.1948 97.6656C95.1948 97.3142 94.7057 97.0293 94.1024 97.0293C93.4992 97.0293 93.0101 97.3142 93.0101 97.6656C93.0101 98.017 93.4992 98.3019 94.1024 98.3019Z" fill="#16110D"/>
<path d="M65.7329 110C66.3362 110 66.8253 109.715 66.8253 109.364C66.8253 109.012 66.3362 108.727 65.7329 108.727C65.1296 108.727 64.6406 109.012 64.6406 109.364C64.6406 109.715 65.1296 110 65.7329 110Z" fill="#16110D"/>
<path d="M69.7843 107.667C70.3876 107.667 70.8766 107.382 70.8766 107.031C70.8766 106.679 70.3876 106.394 69.7843 106.394C69.181 106.394 68.6919 106.679 68.6919 107.031C68.6919 107.382 69.181 107.667 69.7843 107.667Z" fill="#16110D"/>
<path d="M74.6098 104.241C75.034 104.485 75.034 104.888 74.6098 105.132C74.1855 105.376 73.4856 105.376 73.0614 105.132C72.6371 104.888 72.6371 104.485 73.0614 104.241C73.4962 103.987 74.1855 103.987 74.6098 104.241Z" fill="#16110D"/>
<path d="M62.4558 106.574C62.88 106.818 62.88 107.221 62.4558 107.465C62.0316 107.709 61.3316 107.709 60.9074 107.465C60.4832 107.221 60.4832 106.818 60.9074 106.574C61.3316 106.331 62.0316 106.331 62.4558 106.574Z" fill="#16110D"/>
<path d="M66.5071 104.241C66.9314 104.485 66.9314 104.888 66.5071 105.132C66.0829 105.376 65.383 105.376 64.9587 105.132C64.5345 104.888 64.5345 104.485 64.9587 104.241C65.3936 103.987 66.0829 103.987 66.5071 104.241Z" fill="#16110D"/>
<path d="M58.3727 104.21C58.7969 104.453 58.7969 104.856 58.3727 105.1C57.9484 105.344 57.2485 105.344 56.8243 105.1C56.4 104.856 56.4 104.453 56.8243 104.21C57.2485 103.966 57.9484 103.966 58.3727 104.21Z" fill="#16110D"/>
<path d="M62.424 101.876C62.8482 102.12 62.8482 102.523 62.424 102.767C61.9997 103.011 61.2998 103.011 60.8756 102.767C60.4513 102.523 60.4513 102.12 60.8756 101.876C61.2998 101.632 61.9997 101.632 62.424 101.876Z" fill="#16110D"/>
<path d="M58.3727 99.5326C58.7969 99.7765 58.7969 100.179 58.3727 100.423C57.9484 100.667 57.2485 100.667 56.8243 100.423C56.4 100.179 56.4 99.7765 56.8243 99.5326C57.2485 99.2886 57.9484 99.2886 58.3727 99.5326Z" fill="#16110D"/>
<path d="M4.57732 64.6889L2.80065 65.7133C2.62458 65.8253 2.30446 65.8093 2.08038 65.6813L0.399742 64.7049C0.191664 64.5768 0.159652 64.4008 0.351724 64.2887L2.12839 63.2644C2.30446 63.1523 2.62458 63.1683 2.83266 63.2964L4.51329 64.2727C4.73738 64.4008 4.76939 64.5768 4.57732 64.6889Z" fill="#060607"/>
<path d="M4.36914 69.603L2.57646 70.6274C2.4004 70.7394 2.08028 70.7234 1.85619 70.5953L0.17556 69.619C-0.0325182 69.4909 -0.0645302 69.3149 0.127542 69.2028L1.90421 68.1784C2.08028 68.0664 2.4004 68.0824 2.62448 68.2104L4.30512 69.1868C4.5292 69.3149 4.54521 69.4909 4.36914 69.603Z" fill="#060607"/>
<path d="M8.72222 67.0893L6.94555 68.1137C6.76948 68.2257 6.44936 68.2097 6.22528 68.0817L4.54464 67.1053C4.33657 66.9773 4.30455 66.8012 4.49663 66.6891L6.2733 65.6648C6.44936 65.5527 6.76948 65.5687 6.99357 65.6968L8.6742 66.6731C8.88228 66.7852 8.91429 66.9773 8.72222 67.0893Z" fill="#060607"/>
<path d="M8.75443 72.1323L6.97776 73.1567C6.80169 73.2687 6.48157 73.2527 6.2735 73.1247L4.59286 72.1483C4.38478 72.0202 4.35277 71.8442 4.54484 71.7321L6.32151 70.7078C6.49758 70.5957 6.8177 70.6117 7.02578 70.7398L8.70641 71.7161C8.91449 71.8442 8.9305 72.0363 8.75443 72.1323Z" fill="#060607"/>
<path d="M13.1083 69.6195L11.3316 70.6439C11.1556 70.756 10.8354 70.74 10.6114 70.6119L8.93075 69.6355C8.72267 69.5075 8.69066 69.3314 8.88273 69.2194L10.6594 68.195C10.8355 68.083 11.1556 68.099 11.3797 68.227L13.0603 69.2034C13.2684 69.3314 13.3004 69.5075 13.1083 69.6195Z" fill="#060607"/>
<path d="M12.9014 74.5337L11.1247 75.558C10.9487 75.6701 10.6286 75.6541 10.4045 75.526L8.72384 74.5497C8.51576 74.4216 8.48375 74.2455 8.67582 74.1335L10.4525 73.1091C10.6286 72.9971 10.9487 73.0131 11.1728 73.1411L12.8534 74.1175C13.0455 74.2455 13.0775 74.4216 12.9014 74.5337Z" fill="#060607"/>
<path d="M17.2545 72.0034L15.4778 73.0278C15.3017 73.1398 14.9816 73.1238 14.7735 72.9958L13.0929 72.0194C12.8848 71.8913 12.8528 71.7153 13.0449 71.6032L14.8216 70.5788C14.9976 70.4668 15.3177 70.4828 15.5258 70.6109L17.2065 71.5872C17.4145 71.7153 17.4465 71.9073 17.2545 72.0034Z" fill="#060607"/>
<path d="M17.0289 76.9181L15.2522 77.9424C15.0761 78.0545 14.756 78.0385 14.5319 77.9104L12.8513 76.9341C12.6592 76.822 12.6272 76.646 12.8193 76.5339L14.596 75.5095C14.772 75.3975 15.0921 75.4135 15.3002 75.5415L16.9809 76.5179C17.1889 76.6299 17.2209 76.822 17.0289 76.9181Z" fill="#060607"/>
<path d="M21.399 74.4047L19.6223 75.4291C19.4463 75.5411 19.1261 75.5251 18.902 75.3971L17.2214 74.4207C17.0133 74.2927 16.9813 74.1166 17.1734 74.0045L18.9501 72.9802C19.1261 72.8681 19.4463 72.8841 19.6543 73.0122L21.335 73.9885C21.559 74.1166 21.5911 74.2927 21.399 74.4047Z" fill="#060607"/>
<path d="M25.7691 71.8754L23.9924 72.8998C23.8164 73.0118 23.4962 72.9958 23.2882 72.8678L21.6075 71.8914C21.3995 71.7633 21.3674 71.5873 21.5595 71.4752L23.3362 70.4509C23.5123 70.3388 23.8324 70.3548 24.0405 70.4829L25.7211 71.4592C25.9292 71.5873 25.9452 71.7794 25.7691 71.8754Z" fill="#060607"/>
<path d="M30.1389 69.3628L28.3622 70.3872C28.1862 70.4992 27.866 70.4832 27.642 70.3551L25.9613 69.3788C25.7532 69.2507 25.7212 69.0747 25.9133 68.9626L27.69 67.9382C27.866 67.8262 28.1862 67.8422 28.4102 67.9703L30.0909 68.9466C30.299 69.0747 30.315 69.2507 30.1389 69.3628Z" fill="#060607"/>
<path d="M34.5084 66.8344L32.7318 67.8588C32.5557 67.9708 32.2356 67.9548 32.0115 67.8268L30.3308 66.8504C30.1228 66.7224 30.0908 66.5463 30.2828 66.4343L32.0595 65.4099C32.2356 65.2978 32.5557 65.3138 32.7638 65.4419L34.4444 66.4183C34.6685 66.5463 34.6845 66.7384 34.5084 66.8344Z" fill="#060607"/>
<path d="M38.8618 64.3208L37.0851 65.3451C36.909 65.4572 36.5889 65.4412 36.3648 65.3131L34.6842 64.3368C34.4761 64.2087 34.4441 64.0327 34.6362 63.9206L36.4128 62.8962C36.5889 62.7842 36.909 62.8002 37.1171 62.9282L38.7977 63.9046C39.0218 64.0327 39.0538 64.2087 38.8618 64.3208Z" fill="#060607"/>
<path d="M25.7855 76.9341L24.0088 77.9584C23.8327 78.0705 23.5126 78.0545 23.3045 77.9264L21.6239 76.9501C21.4158 76.822 21.3838 76.646 21.5759 76.5339L23.3526 75.5095C23.5286 75.3975 23.8487 75.4135 24.0568 75.5415L25.7375 76.5179C25.9455 76.646 25.9775 76.822 25.7855 76.9341Z" fill="#060607"/>
<path d="M30.1541 74.4047L28.3774 75.4291C28.2013 75.5411 27.8812 75.5251 27.6731 75.3971L25.9925 74.4207C25.7844 74.2927 25.7524 74.1166 25.9445 74.0045L27.7212 72.9802C27.8972 72.8681 28.2174 72.8841 28.4254 73.0122L30.1061 73.9885C30.3141 74.1166 30.3301 74.3087 30.1541 74.4047Z" fill="#060607"/>
<path d="M34.5253 71.892L32.7486 72.9164C32.5725 73.0285 32.2524 73.0125 32.0283 72.8844L30.3477 71.9081C30.1396 71.78 30.1076 71.6039 30.2997 71.4919L32.0763 70.4675C32.2524 70.3555 32.5725 70.3715 32.7806 70.4995L34.4612 71.4759C34.6853 71.6039 34.7013 71.78 34.5253 71.892Z" fill="#060607"/>
<path d="M38.8948 69.3628L37.1181 70.3872C36.942 70.4992 36.6219 70.4832 36.3978 70.3551L34.7172 69.3788C34.5091 69.2507 34.4771 69.0747 34.6692 68.9626L36.4458 67.9382C36.6219 67.8262 36.942 67.8422 37.1661 67.9703L38.8467 68.9466C39.0548 69.0747 39.0708 69.2667 38.8948 69.3628Z" fill="#060607"/>
<path d="M35.2292 60.3844C35.2292 60.3684 35.2292 54.078 35.2292 53.5498C35.2292 53.5018 35.1972 53.4538 35.1332 53.4378L20.9839 54.7023C20.9679 54.7023 20.9679 54.7023 20.9519 54.6863L19.6554 46.8753C19.6234 46.8593 19.5754 46.8593 19.5273 46.8753L6.51445 54.3661C6.48243 54.3822 6.45042 54.3822 6.41841 54.3822L3.92147 53.6939C3.84144 53.6779 3.76141 53.7259 3.76141 53.8059C3.76141 54.4462 3.76141 60.4324 3.77741 60.5125V60.5285C3.82543 60.9446 4.03351 61.3448 4.44967 61.5849L17.5746 69.2037C18.695 69.86 20.0715 69.86 21.192 69.2037L34.509 61.5689C34.9571 61.3128 35.1812 60.8646 35.1972 60.4164L35.2292 60.3844Z" fill="#00C5F6"/>
<path d="M19.4147 70.3065C18.6785 70.3065 17.9422 70.1144 17.2859 69.7303L4.16097 62.1114C3.60076 61.7913 3.24863 61.2311 3.1686 60.5748C3.15259 60.4948 3.15259 60.4628 3.15259 55.725V53.7882C3.15259 53.5642 3.24863 53.3401 3.4407 53.196C3.61677 53.052 3.87286 53.004 4.09695 53.068L6.38581 53.7082L19.2387 46.3294C19.4627 46.2014 19.7509 46.2014 19.9749 46.3294L20.231 46.4735L21.4795 54.0123L35.1967 52.7799L35.3087 52.8119C35.6288 52.9079 35.8529 53.196 35.8529 53.5322L35.8369 60.4628C35.8049 61.119 35.4368 61.7272 34.8445 62.0794L21.5275 69.7143C20.8873 70.1304 20.151 70.3065 19.4147 70.3065ZM4.41707 54.4765V55.741C4.41707 57.6617 4.41707 60.3347 4.41707 60.4948C4.43308 60.6228 4.4971 60.8949 4.78521 61.055L17.9102 68.6739C18.8385 69.2181 19.9749 69.2181 20.9033 68.6739L34.2203 61.039C34.5404 60.8469 34.5885 60.5268 34.6045 60.3987V54.1404L20.9193 55.3728L20.6472 55.2768L20.3751 55.1328L19.1586 47.85L6.57788 55.0687L6.25776 54.9887L4.41707 54.4765Z" fill="#060607"/>
<path d="M35.1484 53.4521L20.9991 54.7166C20.9831 54.7166 20.9831 54.7166 20.9671 54.7006L19.3185 59.5184V69.6823C19.9747 69.6983 20.647 69.5542 21.2232 69.2021L34.5402 61.5672C34.9884 61.3111 35.2125 60.8629 35.2285 60.4147V60.3987C35.2285 60.3827 35.2285 54.0924 35.2285 53.5642C35.2445 53.5161 35.1965 53.4681 35.1484 53.4521Z" fill="#060607"/>
<path d="M19.4147 70.3071C19.3666 70.3071 19.3346 70.3071 19.2866 70.3071L18.6784 70.2911L18.7104 59.3269L20.5991 53.8049L21.1113 54.077L35.1966 52.8125L35.3086 52.8445C35.6288 52.9405 35.8528 53.2287 35.8528 53.5648L35.8368 60.4954C35.8048 61.1516 35.4367 61.7759 34.8445 62.112L21.5274 69.7469C20.8872 70.115 20.1669 70.3071 19.4147 70.3071ZM19.9429 59.6311V69.0106C20.279 68.9466 20.6151 68.8345 20.9192 68.6585L34.2362 61.0236C34.5564 60.8315 34.6044 60.5114 34.6204 60.3833V54.125L21.4314 55.3094L19.9429 59.6311Z" fill="#060607"/>
<path d="M5.80975 55.4688C5.80975 55.4688 6.00182 54.9406 6.24191 54.2683L3.93704 53.6281C3.85701 53.6121 3.77698 53.6601 3.77698 53.7401C3.77698 54.3804 3.77698 60.3666 3.79299 60.4467V60.4627C3.84101 60.8788 4.04908 61.279 4.46524 61.5191L5.79374 62.2874V58.67V55.4688H5.80975Z" fill="#060607"/>
<path d="M6.4175 63.3769L4.16065 62.0644C3.60044 61.7443 3.2483 61.1841 3.18428 60.5278C3.16827 60.4478 3.16827 60.4158 3.16827 55.678V53.7413C3.16827 53.5172 3.28032 53.2931 3.45638 53.149C3.64846 53.005 3.88855 52.957 4.11263 53.021L7.05774 53.8373L6.83366 54.4615C6.65759 54.9577 6.49753 55.3899 6.4335 55.5659L6.4175 63.3769ZM4.41674 54.4135V55.678C4.41674 57.5987 4.41674 60.2717 4.41674 60.4318C4.43275 60.5598 4.49677 60.8319 4.78488 60.992L5.16903 61.2161L5.21705 55.2618C5.21705 55.2618 5.29708 55.0377 5.42512 54.6856L4.41674 54.4135Z" fill="#060607"/>
<path d="M17.6697 62.4161L4.48075 54.7652C3.5524 54.221 3.5524 52.8925 4.48075 52.3483L17.8618 44.6654C18.9502 44.0412 20.2787 44.0412 21.3511 44.6654L34.54 52.3163C35.4684 52.8605 35.4684 54.205 34.54 54.7332L21.159 62.4161C20.0866 63.0403 18.7421 63.0403 17.6697 62.4161Z" fill="white"/>
<path d="M19.4149 63.5204C18.6946 63.5204 17.9904 63.3284 17.3501 62.9602L4.16115 55.3093C3.53691 54.9412 3.15277 54.285 3.15277 53.5647C3.15277 52.8284 3.53691 52.1882 4.16115 51.82L17.5422 44.1371C18.8067 43.4009 20.3913 43.4009 21.6558 44.1371L34.8447 51.788C35.469 52.1562 35.8531 52.8124 35.8531 53.5327C35.8531 54.269 35.469 54.9092 34.8447 55.2773L21.4637 62.9602C20.8395 63.3284 20.1352 63.5204 19.4149 63.5204ZM19.607 44.8254C19.1108 44.8254 18.6146 44.9534 18.1825 45.2095L4.80139 52.8924C4.44925 53.0845 4.41724 53.4206 4.41724 53.5647C4.41724 53.7087 4.44925 54.0289 4.80139 54.2369L17.9904 61.8878C18.8707 62.4 19.9751 62.4 20.8555 61.8878L34.2365 54.2049C34.5886 54.0129 34.6206 53.6767 34.6206 53.5327C34.6206 53.4046 34.5886 53.0685 34.2365 52.8604L21.0475 45.2095C20.5994 44.9534 20.1032 44.8254 19.607 44.8254Z" fill="#060607"/>
<path d="M28.9384 40.2956L22.6481 36.6142C22.376 36.4542 22.1359 36.4702 21.9598 36.5822L14.3089 41.352C14.1649 41.4481 14.1168 41.6241 14.1969 41.7682L21.5757 49.6912C21.6077 49.7392 21.6237 49.7872 21.6237 49.8512V52.4122C21.6237 53.1645 24.6168 51.0037 25.177 51.3238C25.225 51.3558 25.257 51.3878 25.2891 51.4358L21.5116 53.7887C21.5917 53.9328 21.7837 53.9808 21.9278 53.8847L29.6107 49.0989C29.6107 49.0989 29.9468 48.6988 29.9468 48.2986V42.2324C29.9628 41.4961 29.4986 40.6318 28.9384 40.2956Z" fill="white"/>
<path d="M21.7844 54.5413C21.7043 54.5413 21.6403 54.5253 21.5603 54.5093C21.3202 54.4453 21.1121 54.3012 20.9841 54.0771L20.6639 53.5489L21.4162 53.0848C21.4002 53.0688 21.3682 53.0688 21.3522 53.0528C21.1281 52.9087 21.0001 52.6686 21.0001 52.3965V49.9796L13.6693 42.0886C13.4132 41.6565 13.5413 41.0963 13.9734 40.8242L21.6243 36.0544C22.0085 35.7983 22.4886 35.7983 22.9528 36.0704L29.2592 39.7678C30.0115 40.1999 30.5877 41.2723 30.5877 42.2487V48.283C30.5877 48.8752 30.1875 49.3874 30.1075 49.4834L29.9474 49.6115L22.2645 54.3973C22.1365 54.4933 21.9604 54.5413 21.7844 54.5413ZM14.9658 41.6725L22.1205 49.3554C22.2005 49.4994 22.2485 49.6595 22.2485 49.8355V51.7563C22.5046 51.6442 22.8088 51.5002 23.0488 51.3721C24.2493 50.7799 24.9696 50.4438 25.4978 50.7639C25.5458 50.7799 25.5778 50.8119 25.6098 50.8439L29.1952 48.6191C29.2752 48.507 29.3392 48.363 29.3392 48.283V42.2327C29.3392 41.6725 28.9711 41.0322 28.6349 40.8402L22.3446 37.1588L14.9658 41.6725Z" fill="#060607"/>
<path d="M16.1657 48.5712C16.1657 48.5712 16.1497 48.7633 16.1177 49.0834L21.4797 53.5971C21.6238 53.8372 21.9439 53.9172 22.184 53.7731L29.6748 49.0994C29.6748 49.0994 30.0109 48.6992 30.0109 48.2991V42.6169C30.0109 42.4569 29.8349 42.3608 29.6908 42.4409L22.12 47.1627C22.088 47.1787 22.0719 47.2107 22.0559 47.2427L16.1657 48.5712Z" fill="#060607"/>
<path d="M21.9122 54.4613C21.8162 54.4613 21.7361 54.4453 21.6401 54.4293C21.384 54.3653 21.1599 54.2212 20.9998 54.0131L15.4458 49.3394L15.5738 48.0589L21.7201 46.6664C21.7361 46.6503 21.7521 46.6503 21.7681 46.6343L29.339 41.9126C29.5951 41.7525 29.9152 41.7365 30.1873 41.8966C30.4594 42.0406 30.6195 42.3287 30.6195 42.6168V48.283C30.6195 48.8752 30.2193 49.3874 30.1393 49.4834L29.9792 49.6115L22.4884 54.2852C22.3283 54.4133 22.1203 54.4613 21.9122 54.4613ZM17.0143 49.0192L21.9442 53.1808L29.243 48.6351C29.323 48.5231 29.387 48.379 29.387 48.299V43.3691L22.5364 47.6427L22.4564 47.7868L17.0143 49.0192Z" fill="#060607"/>
<path d="M20.9983 53.9969L14.7079 50.3156C14.1477 49.9954 13.6996 49.1311 13.6996 48.3788V42.3285C13.6996 41.5763 14.1477 41.2401 14.7079 41.5603L20.9983 45.2416C21.5585 45.5618 22.0067 46.4261 22.0067 47.1784V53.2287C22.0227 53.9809 21.5585 54.3171 20.9983 53.9969Z" fill="#00C5F6"/>
<path d="M21.415 54.7496C21.1749 54.7496 20.9348 54.6856 20.6947 54.5415L14.3884 50.8441C13.6361 50.4119 13.0759 49.3555 13.0759 48.3792V42.3289C13.0759 41.7047 13.316 41.2085 13.7321 40.9684C14.1163 40.7443 14.5804 40.7603 15.0126 41.0164L21.319 44.7138C22.0713 45.146 22.6475 46.2184 22.6475 47.1947V53.245C22.6475 53.8692 22.4074 54.3654 21.9912 54.6055C21.7992 54.7016 21.6071 54.7496 21.415 54.7496ZM21.319 53.4531C21.351 53.4691 21.367 53.4851 21.383 53.4851C21.367 53.4531 21.399 53.3731 21.399 53.229V47.1947C21.399 46.6345 21.0309 45.9943 20.6947 45.8022L14.3884 42.1048C14.3563 42.0888 14.3403 42.0728 14.3243 42.0728C14.3403 42.1048 14.3083 42.1848 14.3083 42.3289V48.3792C14.3083 48.9394 14.6765 49.5796 15.0126 49.7717L21.319 53.4531Z" fill="#060607"/>
<path d="M29.2017 45.8818L22.4552 49.9445L22.9507 50.7672L29.6972 46.7045L29.2017 45.8818Z" fill="#00C5F6"/>
<path d="M16.5494 38.1357L23.496 42.1371L27.5615 39.7682L20.6949 35.7188L16.5494 38.1357Z" fill="white"/>
<path d="M23.4965 42.8569L15.3014 38.1352L20.6954 34.998L28.8105 39.7838L23.4965 42.8569ZM17.7983 38.1352L23.4965 41.4164L26.3295 39.7838L20.6794 36.4385L17.7983 38.1352Z" fill="#060607"/>
</g>
<defs>
<clipPath id="clip0_11_808">
<rect width="138" height="110" fill="white"/>
</clipPath>
</defs>
</svg>
