<svg width="100" height="136" viewBox="0 0 100 136" fill="none" xmlns="http://www.w3.org/2000/svg">
<g clip-path="url(#clip0_11_1461)">
<path d="M72.6237 122.673L70.8943 123.67C70.7229 123.779 70.4113 123.763 70.2087 123.639L68.5728 122.688C68.3702 122.564 68.3391 122.392 68.526 122.283L70.2555 121.286C70.4269 121.177 70.7385 121.193 70.9566 121.317L72.5926 122.268C72.7795 122.392 72.7951 122.579 72.6237 122.673Z" fill="#060607"/>
<path d="M72.4059 127.456L70.6765 128.453C70.5051 128.562 70.1935 128.546 69.9754 128.422L68.3394 127.471C68.1369 127.347 68.1057 127.175 68.2927 127.066L70.0221 126.069C70.1935 125.96 70.5051 125.975 70.7233 126.1L72.3592 127.05C72.5618 127.175 72.5773 127.362 72.4059 127.456Z" fill="#060607"/>
<path d="M76.6589 125.01L74.9294 126.007C74.7581 126.116 74.4464 126.101 74.2283 125.976L72.5924 125.025C72.3898 124.901 72.3587 124.729 72.5456 124.62L74.2751 123.623C74.4464 123.514 74.7581 123.53 74.9762 123.654L76.6121 124.605C76.8147 124.729 76.8303 124.901 76.6589 125.01Z" fill="#060607"/>
<path d="M76.6756 129.933L74.9462 130.93C74.7748 131.039 74.4632 131.024 74.2607 130.899L72.6247 129.949C72.4222 129.824 72.391 129.653 72.578 129.543L74.3074 128.546C74.4788 128.437 74.7904 128.453 74.9929 128.577L76.6289 129.528C76.8314 129.637 76.847 129.824 76.6756 129.933Z" fill="#060607"/>
<path d="M80.9287 127.471L79.1993 128.469C79.0279 128.578 78.7163 128.562 78.4981 128.437L76.8622 127.487C76.6596 127.362 76.6285 127.191 76.8154 127.082L78.5449 126.085C78.7163 125.976 79.0279 125.991 79.246 126.116L80.8819 127.066C81.0845 127.191 81.1001 127.362 80.9287 127.471Z" fill="#060607"/>
<path d="M80.7106 132.255L78.9812 133.252C78.8098 133.361 78.4982 133.346 78.28 133.221L76.6441 132.271C76.4415 132.146 76.4104 131.975 76.5973 131.866L78.3268 130.884C78.4982 130.775 78.8098 130.79 79.0279 130.915L80.6638 131.866C80.8664 131.975 80.882 132.146 80.7106 132.255Z" fill="#060607"/>
<path d="M84.9648 129.793L83.2354 130.79C83.064 130.899 82.7524 130.883 82.5498 130.759L80.9139 129.808C80.7113 129.684 80.6802 129.512 80.8671 129.403L82.5966 128.406C82.768 128.297 83.0796 128.312 83.2821 128.437L84.9181 129.388C85.1206 129.512 85.1362 129.699 84.9648 129.793Z" fill="#060607"/>
<path d="M84.7461 134.592L83.0167 135.589C82.8453 135.698 82.5337 135.682 82.3311 135.558L80.6952 134.607C80.4926 134.483 80.4615 134.311 80.6484 134.202L82.3779 133.205C82.5493 133.096 82.8609 133.112 83.0634 133.236L84.6994 134.187C84.9019 134.296 84.9175 134.483 84.7461 134.592Z" fill="#060607"/>
<path d="M60.2842 115.552L58.5547 116.549C58.3833 116.658 58.0717 116.643 57.8536 116.518L56.2176 115.568C56.0151 115.443 55.9839 115.272 56.1709 115.163L57.9003 114.165C58.0717 114.056 58.3833 114.072 58.6015 114.197L60.2374 115.147C60.44 115.272 60.4555 115.459 60.2842 115.552Z" fill="#060607"/>
<path d="M60.0657 120.336L58.3362 121.333C58.1648 121.442 57.8532 121.426 57.6351 121.302L55.9991 120.351C55.7966 120.227 55.7654 120.055 55.9524 119.946L57.6818 118.949C57.8532 118.84 58.1648 118.855 58.383 118.98L60.0189 119.931C60.2215 120.055 60.2526 120.242 60.0657 120.336Z" fill="#060607"/>
<path d="M64.3199 117.89L62.5904 118.887C62.4191 118.996 62.1075 118.98 61.9049 118.856L60.269 117.905C60.0664 117.781 60.0352 117.609 60.2222 117.5L61.9361 116.519C62.1075 116.409 62.4191 116.425 62.6216 116.55L64.2576 117.5C64.4757 117.609 64.4913 117.781 64.3199 117.89Z" fill="#060607"/>
<path d="M64.3355 122.797L62.606 123.795C62.4346 123.904 62.123 123.888 61.9049 123.763L60.269 122.813C60.0664 122.688 60.0352 122.517 60.2222 122.408L61.9516 121.411C62.123 121.302 62.4346 121.317 62.6528 121.442L64.2887 122.392C64.4913 122.517 64.5224 122.704 64.3355 122.797Z" fill="#060607"/>
<path d="M68.5894 120.352L66.86 121.349C66.6886 121.458 66.377 121.442 66.1589 121.318L64.5229 120.367C64.3204 120.243 64.2892 120.071 64.4762 119.962L66.2056 118.965C66.377 118.856 66.6886 118.872 66.8911 118.996L68.5271 119.947C68.7452 120.071 68.7608 120.243 68.5894 120.352Z" fill="#060607"/>
<path d="M68.37 125.135L66.6405 126.132C66.4692 126.241 66.1575 126.225 65.955 126.101L64.319 125.15C64.1165 125.026 64.0853 124.854 64.2723 124.745L66.0017 123.748C66.1731 123.639 66.4847 123.655 66.6873 123.779L68.3232 124.73C68.5258 124.854 68.5414 125.026 68.37 125.135Z" fill="#060607"/>
<path d="M51.9803 110.753L50.2509 111.766C50.0795 111.875 49.7679 111.86 49.5498 111.735L47.9138 110.785C47.7113 110.66 47.6801 110.489 47.8671 110.38L49.5965 109.382C49.7679 109.273 50.0795 109.289 50.2976 109.414L51.9336 110.364C52.1361 110.473 52.1517 110.66 51.9803 110.753Z" fill="#060607"/>
<path d="M51.9945 115.677L50.2651 116.674C50.0937 116.784 49.7821 116.768 49.5795 116.643L47.9436 115.693C47.7255 115.584 47.7099 115.412 47.8813 115.303L49.6107 114.306C49.7821 114.197 50.0937 114.213 50.2962 114.337L51.9322 115.288C52.1503 115.397 52.1815 115.584 51.9945 115.677Z" fill="#060607"/>
<path d="M56.2494 113.231L54.52 114.228C54.3486 114.337 54.037 114.322 53.8344 114.197L52.1985 113.247C51.9959 113.122 51.9648 112.951 52.1517 112.842L53.8812 111.844C54.0526 111.735 54.3642 111.751 54.5667 111.876L56.2027 112.826C56.4052 112.951 56.4364 113.122 56.2494 113.231Z" fill="#060607"/>
<path d="M56.0306 118.014L54.3012 119.011C54.1298 119.12 53.8182 119.105 53.6001 118.98L51.9641 118.03C51.7616 117.905 51.7304 117.734 51.9174 117.625L53.6468 116.628C53.8182 116.519 54.1298 116.534 54.3479 116.659L55.9839 117.609C56.1864 117.734 56.2176 117.905 56.0306 118.014Z" fill="#060607"/>
<path d="M88.999 132.13L87.2696 133.127C87.0982 133.236 86.7866 133.22 86.5841 133.096L84.9481 132.145C84.7456 132.021 84.7144 131.849 84.9014 131.74L86.6308 130.743C86.8022 130.634 87.1138 130.649 87.3319 130.774L88.9679 131.725C89.1548 131.849 89.1704 132.021 88.999 132.13Z" fill="#060607"/>
<path d="M93.2524 129.668L91.523 130.665C91.3516 130.775 91.04 130.759 90.8374 130.634L89.2015 129.684C88.9989 129.559 88.9677 129.388 89.1547 129.279L90.8842 128.282C91.0555 128.173 91.3671 128.188 91.5697 128.313L93.2056 129.263C93.3926 129.388 93.4238 129.575 93.2524 129.668Z" fill="#060607"/>
<path d="M97.4894 127.223L95.7599 128.22C95.5885 128.329 95.2769 128.313 95.0588 128.189L93.4228 127.238C93.2203 127.114 93.1891 126.942 93.3761 126.833L95.1055 125.836C95.2769 125.727 95.5885 125.743 95.8067 125.867L97.4426 126.818C97.6452 126.942 97.6763 127.114 97.4894 127.223Z" fill="#060607"/>
<path d="M93.268 134.592L91.5385 135.589C91.3671 135.698 91.0555 135.682 90.853 135.558L89.2015 134.623C88.9989 134.498 88.9677 134.327 89.1547 134.218L90.8842 133.221C91.0555 133.112 91.3671 133.127 91.5697 133.252L93.2056 134.202C93.4238 134.311 93.4394 134.498 93.268 134.592Z" fill="#060607"/>
<path d="M97.5209 132.145L95.7915 133.142C95.6201 133.252 95.3085 133.236 95.0903 133.111L93.4544 132.161C93.2518 132.036 93.2207 131.865 93.4076 131.756L95.1371 130.759C95.3085 130.65 95.6201 130.665 95.8226 130.79L97.4586 131.74C97.6611 131.865 97.6923 132.036 97.5209 132.145Z" fill="#060607"/>
<path d="M92.6774 122.828C93.1292 121.924 93.3785 120.756 93.3785 119.369V32.4612C93.3785 27.7559 90.5273 22.3027 86.9905 20.2616L54.0221 1.23787C52.542 0.365359 51.1709 0.271876 50.0803 0.786032C48.1795 1.45599 46.4968 3.07636 46.4968 3.07636L47.6965 4.91486H47.712C47.6809 5.27322 47.6497 5.64715 47.6497 6.05224V92.9603C47.6497 97.6656 50.501 103.119 54.0377 105.16L86.9905 124.184L88.1279 126.427C88.1279 126.427 90.9479 125.897 92.5372 123.077C92.5527 123.062 92.5527 123.046 92.5527 123.031C92.5839 122.968 92.6151 122.906 92.6462 122.844C92.6618 122.844 92.6774 122.828 92.6774 122.828Z" fill="#060607"/>
<path d="M87.8769 126.957L86.646 124.542L53.7867 105.565C50.1409 103.462 47.165 97.806 47.165 92.9605V6.05249C47.165 5.7253 47.1806 5.39811 47.2118 5.02418L45.8874 2.99872L46.1679 2.73385C46.2458 2.67153 47.9441 1.03557 49.9072 0.334452L49.9384 0.318871C51.1848 -0.242027 52.7117 -0.0550607 54.2386 0.817447L87.1913 19.8412C90.8372 21.9446 93.8131 27.6003 93.8131 32.4459V119.354C93.8131 120.772 93.5638 122.003 93.0652 123.015L93.0496 123.046L92.9405 123.249C91.2423 126.272 88.2976 126.848 88.1729 126.879L87.8769 126.957ZM48.2401 4.30748L48.1778 4.96186C48.131 5.36695 48.1154 5.70972 48.1154 6.05249V92.9605C48.1154 97.51 50.8732 102.792 54.2697 104.755L87.3471 123.857L88.3755 125.882C89.1233 125.648 90.993 124.885 92.1459 122.859L92.255 122.626C92.6913 121.738 92.9094 120.647 92.9094 119.369V32.4614C92.9094 27.9119 90.1516 22.6301 86.7551 20.667L53.7867 1.64321C52.4936 0.879769 51.2783 0.739544 50.2811 1.20696L50.063 1.31602L50.0318 1.30044C48.7698 1.79902 47.6324 2.70269 47.1183 3.15452L47.9129 4.38538L48.2401 4.30748Z" fill="#060607"/>
<path d="M84.1986 125.961L51.2303 106.937C47.7091 104.896 44.8423 99.4424 44.8423 94.7371V7.82905C44.8423 3.12374 47.6935 0.973639 51.2303 2.9991L84.1986 22.0229C87.7198 24.0639 90.5866 29.5171 90.5866 34.2224V121.131C90.5866 125.836 87.7198 128.002 84.1986 125.961Z" fill="white"/>
<path d="M86.7398 127.207C85.8673 127.207 84.9169 126.926 83.9665 126.381L50.9981 107.342C47.3523 105.238 44.3764 99.583 44.3764 94.7374V7.82943C44.3764 5.18074 45.2645 3.15528 46.8225 2.26719C48.1313 1.50374 49.7828 1.62839 51.4655 2.60996L84.4183 21.6337C88.0641 23.7371 91.04 29.3928 91.04 34.2383V121.146C91.04 123.795 90.1519 125.82 88.5939 126.708C88.033 127.035 87.4098 127.207 86.7398 127.207ZM48.6922 2.71902C48.178 2.71902 47.7106 2.84367 47.29 3.07737C46.0435 3.79408 45.3112 5.53909 45.3112 7.82943V94.7374C45.3112 99.2869 48.069 104.568 51.4655 106.531L84.4183 125.555C85.805 126.35 87.1137 126.475 88.1265 125.898C89.3729 125.181 90.1052 123.436 90.1052 121.146V34.2383C90.1052 29.6888 87.3474 24.407 83.9509 22.4439L50.9981 3.40456C50.1879 2.95273 49.4089 2.71902 48.6922 2.71902Z" fill="#060607"/>
<path d="M82.2055 23.6278L70.5668 16.9749C70.411 16.8814 70.2085 17.0061 70.2085 17.1775V17.9098C70.2085 19.125 68.8842 19.8729 67.8403 19.2497L67.1547 18.8446C66.0018 18.1435 65.2851 16.897 65.2851 15.5415V14.3107C65.2851 14.0146 65.1292 13.7342 64.8644 13.5784L50.5303 5.33634C48.7541 4.30803 47.3052 5.14938 47.3052 7.206V95.0644C47.3052 98.8349 49.9694 103.446 53.2257 105.332L84.9009 123.623C86.6771 124.652 88.1261 123.81 88.1261 121.754V33.8953C88.1261 30.1404 85.4618 25.513 82.2055 23.6278Z" fill="white"/>
<path d="M86.3343 124.527C85.8046 124.527 85.2437 124.356 84.6672 124.028L52.992 105.737C49.5955 103.774 46.8377 98.9901 46.8377 95.0638V7.20529C46.8377 6.03675 47.2584 5.14866 48.0219 4.71241C48.7853 4.27615 49.7669 4.35406 50.764 4.93054L65.0981 13.1727C65.5032 13.4064 65.7525 13.8426 65.7525 14.31V15.5409C65.7525 16.725 66.3757 17.8312 67.3884 18.4389L68.074 18.844C68.4167 19.0465 68.8218 19.0621 69.1802 18.8595C69.523 18.657 69.7411 18.3142 69.7411 17.9091V17.1768C69.7411 16.9276 69.8813 16.6938 70.0839 16.5692C70.302 16.4446 70.5669 16.4446 70.785 16.5692L82.4236 23.2221C85.8202 25.1852 88.5779 29.9684 88.5779 33.8947V121.754C88.5779 122.922 88.1572 123.81 87.3938 124.246C87.0822 124.433 86.7238 124.527 86.3343 124.527ZM49.0969 5.38237C48.8632 5.38237 48.6607 5.42911 48.4893 5.53818C48.0219 5.80304 47.7726 6.3951 47.7726 7.20529V95.0638C47.7726 98.694 50.3278 103.119 53.4595 104.927L85.1346 123.218C85.8358 123.623 86.4901 123.701 86.942 123.436C87.4094 123.171 87.6587 122.579 87.6587 121.754V33.8947C87.6587 30.2645 85.1035 25.8396 81.9718 24.0323L70.6915 17.5819V17.9247C70.6915 18.6726 70.302 19.3269 69.6632 19.6853C69.0088 20.0592 68.2454 20.0437 67.6221 19.6541L66.9366 19.249C65.6434 18.47 64.8332 17.0522 64.8332 15.5409V14.31C64.8332 14.1698 64.7553 14.0607 64.6463 13.9828L50.3122 5.74072C49.8604 5.50701 49.4553 5.38237 49.0969 5.38237Z" fill="#060607"/>
<path d="M68.5265 17.4099C68.5265 17.9241 68.1681 18.1422 67.7163 17.8773C67.2645 17.6125 66.9061 16.9892 66.9061 16.4751C66.9061 15.9609 67.2645 15.7428 67.7163 16.0077C68.1681 16.2725 68.5265 16.8958 68.5265 17.4099Z" fill="#060607"/>
<path d="M51.1686 2.9833L50.6545 2.51588C50.7012 2.46914 51.7919 1.28502 53.4745 0.895508L53.6304 1.58105C52.1658 1.90824 51.1842 2.96772 51.1686 2.9833Z" fill="#00C5F6"/>
<path d="M92.7452 29.0723L90.192 30.3411L90.504 30.969L93.0572 29.7002L92.7452 29.0723Z" fill="#00C5F6"/>
<path d="M92.9059 76.7715L92.8711 85.4965L93.8059 85.5003L93.8408 76.7752L92.9059 76.7715Z" fill="#00C5F6"/>
<path d="M90.9626 122.844L90.6354 122.221C90.6509 122.205 92.2557 121.38 93.1282 120.554L93.6112 121.068C92.6608 121.956 91.0405 122.813 90.9626 122.844Z" fill="#00C5F6"/>
<path d="M91.6477 71.132C91.5231 71.132 91.3985 71.1009 91.2894 71.0386C91.0245 70.8828 90.8687 70.5711 90.8687 70.166V64.2766C90.8687 63.6222 91.2426 62.9055 91.7568 62.6095L91.8659 62.5472C92.1463 62.3914 92.4423 62.3758 92.6761 62.516C92.9409 62.6718 93.0967 62.9834 93.0967 63.3885V69.278C93.0967 69.9168 92.7072 70.649 92.2086 70.9451L92.0996 71.0074C91.9594 71.0853 91.8035 71.132 91.6477 71.132ZM92.3177 63.1081C92.3021 63.1081 92.271 63.1081 92.2086 63.1392L92.0996 63.2016C91.8191 63.373 91.5698 63.8559 91.5698 64.261V70.1505C91.5698 70.3374 91.6322 70.4153 91.6477 70.4153C91.6477 70.4153 91.6945 70.4153 91.7568 70.3842L91.8659 70.3219C92.1463 70.1505 92.3956 69.6675 92.3956 69.2624V63.3729C92.3956 63.2016 92.3489 63.1237 92.3177 63.1081Z" fill="white"/>
<path d="M91.6477 61.675C91.5231 61.675 91.3985 61.6438 91.2894 61.5815C91.0245 61.4257 90.8687 61.1141 90.8687 60.709V54.8196C90.8687 54.1808 91.2582 53.4485 91.7568 53.1525L91.8659 53.0901C92.1463 52.9343 92.4423 52.9188 92.6761 53.059C92.9409 53.2148 93.0967 53.542 93.0967 53.9315V59.8209C93.0967 60.4597 92.7072 61.192 92.2086 61.488L92.0996 61.5504C91.9594 61.6283 91.8035 61.675 91.6477 61.675ZM92.3177 53.6666C92.3021 53.6666 92.271 53.6666 92.2086 53.6978L92.0996 53.7601C91.8191 53.9315 91.5698 54.4145 91.5698 54.8196V60.709C91.5698 60.896 91.6322 60.9739 91.6477 60.9739C91.6477 60.9739 91.6945 60.9739 91.7568 60.9427L91.8659 60.8804C92.1463 60.709 92.3956 60.226 92.3956 59.8209V53.9315C92.3956 53.7445 92.3333 53.6666 92.3177 53.6666Z" fill="white"/>
<path d="M91.6477 50.8924C91.5231 50.8924 91.3985 50.8612 91.2894 50.7989C91.0245 50.6431 90.8687 50.3159 90.8687 49.9264V46.6078C90.8687 45.9534 91.2426 45.2367 91.7568 44.9406L91.8659 44.8783C92.1463 44.7225 92.4423 44.7069 92.6761 44.8472C92.9409 45.003 93.0967 45.3146 93.0967 45.7197V49.0383C93.0967 49.6771 92.7072 50.4094 92.2086 50.7054L92.0996 50.7678C91.9594 50.8457 91.8035 50.8924 91.6477 50.8924ZM92.3177 45.4548C92.3021 45.4548 92.271 45.4548 92.2086 45.486L92.0996 45.5483C91.8191 45.7197 91.5698 46.2027 91.5698 46.6078V49.9264C91.5698 50.1134 91.6166 50.1913 91.6477 50.1913C91.6477 50.1913 91.6945 50.1913 91.7568 50.1601L91.8659 50.0978C92.1463 49.9264 92.3956 49.4434 92.3956 49.0383V45.7197C92.3956 45.5483 92.3489 45.4548 92.3177 45.4548Z" fill="white"/>
<path d="M92.0376 47.8238L91.9285 47.8861C91.539 48.1198 91.2118 47.8705 91.2118 47.3564V46.6241C91.2118 46.0944 91.5234 45.4867 91.9285 45.2686L92.0376 45.1907C92.4271 44.957 92.7543 45.2063 92.7543 45.7204V46.4527C92.7543 46.9824 92.4271 47.5901 92.0376 47.8238Z" fill="#060607"/>
<path d="M91.6477 48.3216C91.5231 48.3216 91.3985 48.2905 91.2894 48.2282C91.0245 48.0724 90.8687 47.7452 90.8687 47.3556V46.6234C90.8687 45.969 91.2426 45.2523 91.7568 44.9563L91.8659 44.8939C92.1463 44.7381 92.4423 44.7225 92.6761 44.8628C92.9409 45.0186 93.0967 45.3302 93.0967 45.7353V46.4676C93.0967 47.1219 92.7228 47.8386 92.2086 48.1347L92.0996 48.197C91.9594 48.2749 91.8035 48.3216 91.6477 48.3216ZM92.3177 45.4548C92.3021 45.4548 92.271 45.4548 92.2086 45.486L92.0996 45.5483C91.8191 45.7197 91.5698 46.2027 91.5698 46.6078V47.3401C91.5698 47.527 91.6322 47.6049 91.6477 47.6049C91.6477 47.6049 91.6945 47.6049 91.7568 47.5738L91.8659 47.5115C92.1463 47.3401 92.3956 46.8571 92.3956 46.452V45.7197C92.3956 45.5483 92.3489 45.4548 92.3177 45.4548Z" fill="white"/>
<path d="M90.7202 24.2021L88.1886 25.7062L88.5467 26.309L91.0783 24.8048L90.7202 24.2021Z" fill="#00C5F6"/>
<path d="M60.3602 48.4622L50.451 42.7441C50.3264 42.6662 50.2173 42.4792 50.2173 42.3079V30.9497C50.2173 30.7783 50.3108 30.7004 50.451 30.7783L60.3602 36.4963C60.4849 36.5742 60.5939 36.7612 60.5939 36.9326V48.2908C60.5783 48.4621 60.4849 48.5401 60.3602 48.4622Z" fill="#00C5F6"/>
<path d="M60.4552 48.8365C60.3617 48.8365 60.2682 48.8054 60.1903 48.7586L50.2811 43.0406C50.0474 42.9003 49.876 42.5887 49.876 42.3083V30.9501C49.876 30.732 49.9695 30.5606 50.1253 30.4671C50.2811 30.3736 50.4681 30.3892 50.6239 30.4827L60.5331 36.2007C60.7668 36.341 60.9382 36.637 60.9382 36.933V48.2912C60.9382 48.5093 60.8447 48.6807 60.6889 48.7742C60.611 48.8209 60.5331 48.8365 60.4552 48.8365ZM50.5771 31.2617V42.3083C50.5771 42.355 50.6083 42.4173 50.6394 42.4485L60.237 47.9952V36.933C60.237 36.8863 60.2059 36.8239 60.1747 36.7928L50.5771 31.2617Z" fill="#060607"/>
<path d="M84.9797 62.6722L75.0705 56.9541C74.9458 56.8762 74.8368 56.6892 74.8368 56.5179V45.1597C74.8368 44.9883 74.9458 44.9104 75.0705 44.9883L84.9797 50.7063C85.1043 50.7842 85.2134 50.9712 85.2134 51.1426V62.5008C85.1978 62.6722 85.1043 62.7501 84.9797 62.6722Z" fill="white"/>
<path d="M85.0735 63.0465C84.98 63.0465 84.8865 63.0153 84.8086 62.9686L74.8994 57.2505C74.6657 57.1103 74.4943 56.7987 74.4943 56.5182V45.1601C74.4943 44.9419 74.5878 44.7705 74.7436 44.6771C74.8994 44.5836 75.0864 44.5992 75.2422 44.6926L85.1514 50.4107C85.3851 50.5509 85.5565 50.8625 85.5565 51.143V62.5011C85.5565 62.7193 85.463 62.8907 85.3072 62.9841C85.2293 63.0309 85.1514 63.0465 85.0735 63.0465ZM75.1954 45.4717V56.5182C75.1954 56.565 75.2266 56.6273 75.2578 56.6585L84.8554 62.2051V51.1585C84.8554 51.1118 84.8242 51.0495 84.793 51.0183L75.1954 45.4717Z" fill="#060607"/>
<path d="M72.6688 84.9988L50.451 72.1761C50.3264 72.0982 50.2173 71.9112 50.2173 71.7398V46.1411C50.2173 45.9697 50.3108 45.8918 50.451 45.9697L72.6688 58.7924C72.7935 58.8703 72.9025 59.0573 72.9025 59.2287V84.8274C72.8869 84.9988 72.7935 85.0767 72.6688 84.9988Z" fill="white"/>
<path d="M72.7638 85.3732C72.6703 85.3732 72.5768 85.3421 72.4989 85.2953L50.2811 72.4726C50.0474 72.3324 49.876 72.0208 49.876 71.7403V46.1415C49.876 45.9234 49.9695 45.752 50.1253 45.6585C50.2811 45.5651 50.4681 45.5806 50.6239 45.6741L72.8417 58.4969C73.0754 58.6371 73.2468 58.9331 73.2468 59.2292V84.8279C73.2468 85.046 73.1533 85.2174 72.9975 85.3109C72.9196 85.3577 72.8417 85.3732 72.7638 85.3732ZM50.5771 46.4531V71.7403C50.5771 71.787 50.6083 71.8494 50.6394 71.8805L72.5456 84.5319V59.2292C72.5456 59.1824 72.5145 59.1201 72.4833 59.0889L50.5771 46.4531Z" fill="#060607"/>
<path d="M84.9771 40.3913L50.4507 20.4638C50.326 20.3859 50.217 20.1989 50.217 20.0276V15.8364C50.217 15.665 50.3105 15.5871 50.4507 15.665L84.9771 35.5925C85.1017 35.6704 85.2108 35.8574 85.2108 36.0287V40.2199C85.1952 40.3913 85.1017 40.4692 84.9771 40.3913Z" fill="#00C5F6"/>
<path d="M85.0722 40.7656C84.9788 40.7656 84.8853 40.7345 84.8074 40.6877L50.281 20.7603C50.0473 20.6201 49.8759 20.3084 49.8759 20.028V15.8368C49.8759 15.6187 49.9694 15.4473 50.1252 15.3538C50.281 15.2604 50.4679 15.2759 50.6237 15.3694L85.1501 35.2969C85.3839 35.4371 85.5552 35.7487 85.5552 36.0292V40.2203C85.5552 40.4385 85.4618 40.6098 85.306 40.7033C85.228 40.7501 85.1501 40.7656 85.0722 40.7656ZM50.577 16.1484V20.028C50.577 20.0747 50.6082 20.1371 50.6393 20.1682L84.8541 39.9243V36.0447C84.8541 35.998 84.823 35.9357 84.7918 35.9045L50.577 16.1484Z" fill="#060607"/>
<path d="M84.9774 113.916L50.451 93.9883C50.3264 93.9104 50.2173 93.7233 50.2173 93.5519V89.3608C50.2173 89.1894 50.3108 89.1115 50.451 89.1894L84.9774 109.117C85.1021 109.195 85.2111 109.382 85.2111 109.553V113.744C85.1955 113.9 85.1021 113.978 84.9774 113.916Z" fill="white"/>
<path d="M85.0724 114.29C84.9789 114.29 84.8854 114.259 84.8075 114.212L50.2811 94.2846C50.0474 94.1444 49.876 93.8328 49.876 93.5523V89.3612C49.876 89.143 49.9695 88.9717 50.1253 88.8782C50.2811 88.7847 50.4681 88.8003 50.6239 88.8938L85.1503 108.821C85.384 108.961 85.5554 109.257 85.5554 109.553V113.745C85.5554 113.963 85.4619 114.134 85.3061 114.228C85.2282 114.274 85.1503 114.29 85.0724 114.29ZM50.5771 89.6728V93.5523C50.5771 93.5991 50.6083 93.6614 50.6394 93.6926L84.8542 113.433V109.553C84.8542 109.507 84.8231 109.444 84.7919 109.429L50.5771 89.6728Z" fill="#060607"/>
<path d="M85.0865 47.482L50.451 27.5078C50.3264 27.4299 50.2173 27.2429 50.2173 27.0715V22.8804C50.2173 22.709 50.3108 22.6311 50.451 22.709L85.0865 42.6988C85.2111 42.7767 85.3202 42.9636 85.3202 43.135V47.3262C85.3202 47.482 85.2111 47.5599 85.0865 47.482Z" fill="#00C5F6"/>
<path d="M85.1814 47.871C85.0879 47.871 84.9945 47.8398 84.9166 47.7931L50.2811 27.8033C50.0474 27.663 49.876 27.3514 49.876 27.071V22.8798C49.876 22.6617 49.9695 22.4903 50.1253 22.3968C50.2811 22.3034 50.4681 22.3189 50.6239 22.4124L85.2593 42.3866C85.493 42.5268 85.6644 42.8229 85.6644 43.1189V47.3101C85.6644 47.5282 85.5709 47.6996 85.4151 47.7931C85.3372 47.8398 85.2593 47.871 85.1814 47.871ZM50.5771 23.1914V27.071C50.5771 27.1177 50.6083 27.18 50.6394 27.2112L84.9633 47.014V43.1345C84.9633 43.0877 84.9321 43.0254 84.901 42.9943L50.5771 23.1914Z" fill="#060607"/>
<path d="M84.9797 92.1028L75.0705 86.3847C74.9458 86.3068 74.8368 86.1198 74.8368 85.9485V74.5903C74.8368 74.4189 74.9458 74.341 75.0705 74.4189L84.9797 80.1369C85.1043 80.2148 85.2134 80.4018 85.2134 80.5732V91.9314C85.1978 92.1028 85.1043 92.1807 84.9797 92.1028Z" fill="#00C5F6"/>
<path d="M85.0735 92.4772C84.98 92.4772 84.8865 92.446 84.8086 92.3993L74.8994 86.6812C74.6657 86.541 74.4943 86.2294 74.4943 85.9489V74.5907C74.4943 74.3726 74.5878 74.2012 74.7436 74.1078C74.8994 74.0143 75.0864 74.0298 75.2422 74.1233L85.1514 79.8414C85.3851 79.9816 85.5565 80.2932 85.5565 80.5737V91.9318C85.5565 92.15 85.463 92.3214 85.3072 92.4148C85.2293 92.4616 85.1514 92.4772 85.0735 92.4772ZM75.1954 74.9024V85.9489C75.1954 85.9957 75.2266 86.058 75.2578 86.0892L84.8554 91.6358V80.5892C84.8554 80.5425 84.8242 80.4802 84.793 80.449L75.1954 74.9024Z" fill="#060607"/>
<path d="M84.9801 106.36L62.7623 93.5371C62.6376 93.4592 62.5285 93.2723 62.5285 93.1009V81.7427C62.5285 81.5713 62.6376 81.4934 62.7623 81.5713L84.9801 94.3941C85.1047 94.472 85.2138 94.6589 85.2138 94.8303V106.189C85.1982 106.344 85.1047 106.422 84.9801 106.36Z" fill="#00C5F6"/>
<path d="M85.0717 106.734C84.9782 106.734 84.8847 106.703 84.8068 106.656L62.589 93.8335C62.3553 93.6933 62.1839 93.3817 62.1839 93.1013V81.7431C62.1839 81.5249 62.2774 81.3536 62.4332 81.2601C62.589 81.1666 62.776 81.1822 62.9318 81.2757L85.1496 94.0984C85.3833 94.2386 85.5547 94.5503 85.5547 94.8307V106.188C85.5547 106.407 85.4612 106.578 85.3054 106.671C85.2275 106.718 85.1496 106.734 85.0717 106.734ZM62.8851 82.0547V93.1013C62.8851 93.148 62.9162 93.2103 62.9474 93.2415L84.8536 105.892V94.8463C84.8536 94.7995 84.8224 94.7372 84.7913 94.7061L62.8851 82.0547Z" fill="#060607"/>
<path d="M98.3171 69.5896L79.0908 58.4962C78.8259 58.3404 78.5922 58.3404 78.4052 58.4339C78.3741 58.4495 78.3429 58.4651 78.3273 58.4807L73.3883 61.4098C73.3727 61.4254 73.3571 61.4565 73.3727 61.4721L78.0157 69.2624V69.2779V66.7851C78.0157 67.5797 78.4987 68.4833 79.0908 68.8261L89 74.5442L89.0156 74.5597L94.0013 82.9109C94.0169 82.9265 94.0325 82.942 94.0636 82.9265L99.065 79.9506C99.2675 79.8104 99.3922 79.5143 99.3922 79.1092V71.615C99.3922 70.836 98.9092 69.9167 98.3171 69.5896Z" fill="white"/>
<path d="M93.8614 83.7527L93.4875 83.2385L88.5641 74.9965L78.7795 69.3563C78.7328 69.3251 78.6704 69.294 78.6237 69.2472V69.2628H77.4084H78.0161L77.4707 69.5121L72.5473 61.2545L73.0615 60.8805L78.1095 57.8891C78.4991 57.6709 78.9665 57.7021 79.4027 57.9514L98.6291 69.0447C99.4081 69.4965 100 70.6028 100 71.6155V79.1097C100 79.7018 99.7976 80.1692 99.4237 80.434L93.8614 83.7527ZM77.4084 66.7855H78.6237C78.6237 67.4088 79.0288 68.0943 79.3871 68.3124L89.4366 74.1084L89.53 74.2642L94.2198 82.1167L98.7381 79.4369C98.7225 79.4369 98.7693 79.3434 98.7693 79.1253V71.6311C98.7693 71.0078 98.3642 70.3223 98.0058 70.1042L78.7795 59.0109C78.7172 58.9797 78.686 58.9641 78.6704 58.9641L74.1677 61.644L77.4084 67.066V66.7855Z" fill="#060607"/>
<path d="M88.0954 71.8179C88.0954 71.8335 88.0799 71.8335 88.0954 71.849L88.2357 74.1082L89.0147 74.5601L89.0303 74.5756L93.9849 82.88C94.0316 82.8956 94.0628 82.8956 94.1095 82.9112L99.0641 79.9665C99.2667 79.8263 99.3913 79.5302 99.3913 79.1251V71.7244C99.3913 71.6777 99.3446 71.6621 99.3134 71.6777L94.4211 74.5912L94.4056 74.6068L88.0954 71.8179Z" fill="#060607"/>
<path d="M94.188 83.5657L93.5803 83.4099L88.5634 75.012L87.6286 74.4823L87.4572 71.6778L87.8779 71.0701L94.3438 73.9369L99.2984 70.9922L99.9683 71.335L99.9995 71.7401V79.1408C99.9995 79.7329 99.7969 80.2003 99.423 80.4652L94.188 83.5657ZM88.8127 73.75L89.4515 74.1083L89.545 74.2641L94.2347 82.1167L98.753 79.4369C98.7375 79.4369 98.7842 79.3434 98.7842 79.1252V72.6905L94.8423 75.0276L94.6398 75.3548L88.7659 72.7528L88.8127 73.75Z" fill="#060607"/>
<path d="M93.3304 82.8958L74.104 71.8025C73.5119 71.4597 73.029 70.5404 73.029 69.7614V62.2672C73.029 61.4726 73.5119 61.1142 74.104 61.457L93.3304 72.5503C93.9224 72.8931 94.4054 73.8124 94.4054 74.5914V82.0856C94.3898 82.8802 93.9224 83.2386 93.3304 82.8958Z" fill="#00C5F6"/>
<path d="M93.7513 83.6281C93.5176 83.6281 93.2683 83.5658 93.019 83.4256L73.7927 72.3323C73.0136 71.8804 72.4216 70.7742 72.4216 69.7615V62.2673C72.4216 61.6285 72.6709 61.1299 73.0915 60.8806C73.481 60.6625 73.9485 60.6781 74.4003 60.9429L93.6266 72.0518C94.4057 72.5037 94.9977 73.6099 94.9977 74.6226V82.1168C94.9977 82.7556 94.7484 83.2542 94.3278 83.5035C94.1564 83.5814 93.9538 83.6281 93.7513 83.6281ZM93.6266 82.3661C93.689 82.3973 93.7357 82.4129 93.7513 82.4129C93.7357 82.4129 93.7824 82.3038 93.7824 82.0857V74.5914C93.7824 73.9682 93.3773 73.2827 93.019 73.0801L73.7927 61.9712C73.7303 61.9401 73.6836 61.9245 73.668 61.9245C73.6836 61.9245 73.6369 62.0336 73.6369 62.2517V69.7459C73.6369 70.3691 74.0419 71.0547 74.4003 71.2572L93.6266 82.3661Z" fill="#060607"/>
<path d="M81.4261 59.8223L76.6393 62.8048L77.282 63.8363L82.0688 60.8537L81.4261 59.8223Z" fill="#060607"/>
<path d="M70.3629 38.382L58.662 31.62C58.4906 31.5266 58.3348 31.5266 58.2257 31.6045L53.3023 34.6738C53.2088 34.7361 53.1776 34.8452 53.24 34.9387L57.992 42.9159C58.0076 42.9471 58.0232 42.9782 58.0232 43.0094V44.6609C58.0232 45.1439 58.3192 45.7048 58.6776 45.9074L60.3135 46.8578C60.3447 46.8734 60.3603 46.9045 60.3914 46.9201L65.6265 55.7075C65.6888 55.801 65.7979 55.8321 65.8913 55.7698L70.8304 52.6849C70.8304 52.6849 71.0485 52.42 71.0485 52.1707V39.6284C71.0173 39.1454 70.7213 38.5845 70.3629 38.382Z" fill="white"/>
<path d="M65.7512 56.3932C65.6889 56.3932 65.6265 56.3932 65.5642 56.3776C65.3617 56.3309 65.1747 56.1907 65.0656 56.0037L59.8929 47.3098L58.3504 46.4373C57.8051 46.1257 57.4 45.3622 57.4 44.6611V43.1342L52.7103 35.2505C52.4922 34.8765 52.6012 34.378 52.9752 34.1598L57.8986 31.0905C58.1946 30.8879 58.5997 30.8879 58.9737 31.1061L70.6746 37.868C71.2199 38.1796 71.625 38.9431 71.625 39.6442V52.1865C71.625 52.6383 71.329 53.0122 71.2667 53.0901L71.1109 53.2148L66.1719 56.2997C66.0628 56.362 65.907 56.3932 65.7512 56.3932ZM53.9567 34.97L58.5062 42.6045C58.5842 42.7291 58.6153 42.8693 58.6153 43.0096V44.6611C58.6153 44.9415 58.8023 45.2843 58.9581 45.3778L60.594 46.3126C60.7187 46.3905 60.8122 46.484 60.8745 46.5931L65.8914 55.0221L70.363 52.2332C70.3786 52.2021 70.3942 52.1709 70.3942 52.1553V39.6286C70.3942 39.3481 70.2072 39.0054 70.0514 38.9119L58.4128 32.1967L53.9567 34.97Z" fill="#060607"/>
<path d="M62.1386 49.4599C62.1386 49.4599 62.123 49.5846 62.1074 49.7871L65.5507 55.5831C65.6442 55.7389 65.8467 55.7856 66.0025 55.6921L70.8169 52.6851C70.8169 52.6851 71.035 52.4202 71.035 52.1709V39.8623C71.035 39.7533 70.926 39.691 70.8325 39.7533L65.9558 42.7915C65.9402 42.807 65.9246 42.8226 65.909 42.8382L62.1386 49.4599Z" fill="#060607"/>
<path d="M65.8441 56.3466C65.7662 56.3466 65.6883 56.331 65.626 56.3155C65.3767 56.2531 65.1741 56.0973 65.0495 55.8792L61.4971 49.9119L61.575 49.2575L65.5013 42.3865L65.6727 42.2619L70.5494 39.2237C70.7675 39.0834 71.0636 39.0679 71.2973 39.2081C71.531 39.3327 71.6868 39.582 71.6868 39.8625V52.1711C71.6868 52.6229 71.3908 52.9968 71.3284 53.0747L71.1882 53.1994L66.3738 56.2064C66.1869 56.2999 66.0155 56.3466 65.8441 56.3466ZM62.728 49.647L65.922 55.0223L70.3936 52.2334C70.4092 52.2022 70.4248 52.1711 70.4248 52.1555V40.7194L66.3738 43.2434L62.728 49.647Z" fill="#060607"/>
<path d="M65.2529 55.8484L53.552 49.0865C53.1936 48.8839 52.8976 48.323 52.8976 47.84V35.2977C52.8976 34.8147 53.1936 34.5966 53.552 34.7991L65.2529 41.5611C65.6113 41.7636 65.9073 42.3245 65.9073 42.8075V55.3498C65.9073 55.8328 65.6113 56.0509 65.2529 55.8484Z" fill="#00C5F6"/>
<path d="M65.5185 56.5332C65.3316 56.5332 65.1446 56.4864 64.9576 56.3774L53.2567 49.6154C52.7113 49.3038 52.3063 48.5404 52.3063 47.8393V35.297C52.3063 34.8296 52.4932 34.44 52.836 34.2375C53.1476 34.0505 53.5215 34.0661 53.8643 34.2687L65.5653 41.0306C66.1106 41.3422 66.5157 42.1056 66.5157 42.8068V55.3491C66.5157 55.8321 66.3287 56.206 65.9859 56.4085C65.8457 56.4864 65.6743 56.5332 65.5185 56.5332ZM53.5215 35.4839L53.506 47.8393C53.506 48.1197 53.6929 48.4625 53.8487 48.556L65.2848 55.1621L65.3004 42.8068C65.3004 42.5263 65.1134 42.1836 64.9576 42.0901L53.5215 35.4839Z" fill="#060607"/>
<path d="M61.067 32.6709L56.1474 35.7358L56.79 36.7673L61.7096 33.7024L61.067 32.6709Z" fill="#060607"/>
<path d="M70.4451 48.8232L66.1061 51.433L66.5879 52.2341L70.9269 49.6243L70.4451 48.8232Z" fill="#00C5F6"/>
<path d="M98.7534 79.959L94.4143 82.5688L94.8961 83.3699L99.2352 80.76L98.7534 79.959Z" fill="#00C5F6"/>
<path d="M64.5539 59.9924L44.0655 48.1668C43.785 48.011 43.5358 47.9954 43.3332 48.1044C43.302 48.12 43.2709 48.1356 43.2553 48.1512L37.9891 51.2673C37.9735 51.2829 37.9579 51.314 37.9735 51.3296L42.9281 59.6184C42.9281 59.6184 42.9281 59.634 42.9281 59.6496V70.961C42.9281 71.8024 43.4423 72.7839 44.0655 73.1423L54.6135 79.2343L54.6291 79.2499L59.942 88.1463C59.9576 88.1619 59.9888 88.1775 60.0043 88.1619L65.3329 84.9991C65.551 84.8432 65.6756 84.5316 65.6756 84.111V62.1736C65.6912 61.3323 65.1771 60.3663 64.5539 59.9924Z" fill="white"/>
<path d="M59.8018 89.0026L59.4279 88.4884L54.1929 79.7166L43.7695 73.7025C42.9437 73.2195 42.3205 72.0666 42.3205 70.9915V59.8359L37.1322 51.142L37.6775 50.768L43.0372 47.5896C43.4423 47.3715 43.9253 47.3871 44.3772 47.6519L64.8499 59.4775C65.6757 59.9605 66.2989 61.1135 66.2989 62.1885V84.1415C66.2989 84.7491 66.0808 85.2477 65.6913 85.5281L59.8018 89.0026ZM38.7838 51.5159L43.5358 59.4775V59.6645V70.9759C43.5358 71.5991 43.9253 72.3782 44.3772 72.6275L55.081 78.8129L55.1744 78.9843L60.1758 87.351L65.0213 84.4686C65.0057 84.4686 65.0681 84.3752 65.0681 84.0947V62.1729C65.0681 61.5497 64.6785 60.7707 64.2267 60.5214L43.7695 48.6958C43.6916 48.6491 43.6449 48.6491 43.6293 48.6491L38.7838 51.5159Z" fill="#060607"/>
<path d="M53.6622 76.3375C53.6622 76.3531 53.6466 76.3531 53.6466 76.3687L53.7868 78.7837L54.6126 79.2667L54.6282 79.2823L59.91 88.132C59.9723 88.1476 59.9879 88.1476 60.0502 88.1631L65.332 85.0315C65.5501 84.8756 65.6748 84.564 65.6748 84.1434V62.2839C65.6748 62.2372 65.628 62.206 65.5969 62.2372L60.3774 65.3377C60.3618 65.3377 60.3618 65.3533 60.3618 65.3533L53.6622 76.3375Z" fill="#060607"/>
<path d="M60.1594 88.801L59.6764 88.6763L59.4115 88.4271L54.2076 79.702L53.226 79.1411L53.0547 76.1964L53.1637 76.025L59.9412 64.9161L60.0659 64.8226L65.6125 61.5195L65.9709 61.6909C66.1734 61.8156 66.3137 62.0337 66.3137 62.2674V84.1113C66.3137 84.7189 66.0955 85.2175 65.706 85.4979L60.1594 88.801ZM54.379 78.4088L55.0801 78.8139L55.1736 78.9853L60.175 87.352L65.0205 84.4696C65.0049 84.4696 65.0672 84.3761 65.0672 84.0957V63.2178L60.7982 65.7574L54.2544 76.4768L54.379 78.4088Z" fill="#060607"/>
<path d="M59.2394 88.1465L38.751 76.3209C38.1278 75.9626 37.6136 74.981 37.6136 74.1397V52.1868C37.6136 51.3454 38.1278 50.9559 38.751 51.3298L59.2238 63.1554C59.847 63.5138 60.3612 64.4953 60.3612 65.3367V87.2896C60.3767 88.1154 59.8626 88.5049 59.2394 88.1465Z" fill="white"/>
<path d="M59.6931 88.8941C59.4438 88.8941 59.179 88.8162 58.9297 88.676L38.4569 76.8504C37.6311 76.3674 37.0079 75.2145 37.0079 74.1394V52.1865C37.0079 51.5165 37.2572 50.9868 37.709 50.7375C38.1141 50.5038 38.5971 50.535 39.0645 50.7998L59.5373 62.6254C60.3631 63.1084 60.9863 64.2614 60.9863 65.3364V87.2894C60.9863 87.9593 60.737 88.4891 60.2852 88.7383C60.0982 88.8318 59.8957 88.8941 59.6931 88.8941ZM38.3011 51.797C38.3011 51.8126 38.2232 51.9216 38.2232 52.1865V74.1394C38.2232 74.7626 38.6127 75.5417 39.0645 75.7909L59.5373 87.6165C59.6308 87.6789 59.6931 87.6633 59.6931 87.6789C59.6931 87.6633 59.771 87.5542 59.771 87.2894V65.3364C59.771 64.7132 59.3815 63.9342 58.9297 63.6849L38.4569 51.8593C38.3634 51.797 38.3167 51.797 38.3011 51.797Z" fill="#060607"/>
<path d="M46.5782 49.6348L41.4734 52.815L42.1161 53.8466L47.2208 50.6663L46.5782 49.6348Z" fill="#060607"/>
<path d="M65.1006 80.8242L60.6014 83.5303L61.0832 84.3314L65.5825 81.6252L65.1006 80.8242Z" fill="#00C5F6"/>
<path d="M51.2478 77.9721L48.085 76.1492V74.6379C47.2748 73.9056 46.5269 72.9864 45.9193 71.958L44.7819 72.0671L43.3173 68.281L44.517 68.172C44.4391 67.7046 44.3924 67.2839 44.3924 66.8944C44.3924 66.4425 44.4547 66.0063 44.5638 65.5545L43.3952 64.0899L45.0779 61.7061L46.3088 63.2485C46.8385 63.0148 47.4462 62.9369 48.1005 63.046V61.3633L51.2634 63.1862V64.6975C52.0736 65.4298 52.8214 66.3491 53.4291 67.3774L54.5664 67.2683L56.031 71.0544L54.8313 71.1634C54.9092 71.6464 54.956 72.0515 54.956 72.441C54.956 72.8929 54.8936 73.3291 54.7846 73.781L55.9531 75.2299L54.286 77.6138L53.0551 76.0713C52.5254 76.305 51.9178 76.3673 51.279 76.2738V77.9721H51.2478ZM49.0198 75.6039L50.313 76.3517V75.0741L50.9206 75.2611C51.6996 75.4948 52.3852 75.4325 52.8993 75.1053L53.2577 74.8716L54.2237 76.0713L54.7846 75.2767L53.7563 73.9991L53.8342 73.7654C53.9744 73.3135 54.0367 72.8929 54.0367 72.4566C54.0367 72.0048 53.9744 71.4906 53.8342 70.8518L53.7251 70.3377L54.7378 70.2442L53.9744 68.281L52.9305 68.3745L52.7435 68.0941C52.1203 66.9879 51.3413 66.0063 50.4688 65.274L50.313 65.1338V63.7315L49.0198 62.9837V64.2613L48.4121 64.0743C47.6331 63.8406 46.9476 63.8873 46.4334 64.2301L46.0751 64.4638L45.1247 63.2641L44.5638 64.0431L45.5921 65.3363L45.5142 65.57C45.3739 66.0219 45.3116 66.4425 45.3116 66.8788C45.3116 67.3306 45.3739 67.8448 45.5142 68.4836L45.6232 68.9977L44.6417 69.0912L45.4051 71.0544L46.449 70.9609L46.5892 71.2258C47.2124 72.332 47.9915 73.3135 48.864 74.0458L49.0354 74.1861V75.6039H49.0198ZM50.5623 72.7059C50.3909 72.7059 50.2039 72.6747 50.0325 72.628C48.3031 72.1138 46.8697 69.621 47.2903 67.876C47.3994 67.4085 47.6643 67.0346 48.0226 66.8165C48.3966 66.5984 48.8484 66.5672 49.3002 66.7074C51.0297 67.2216 52.4631 69.7145 52.0424 71.4595C51.9333 71.9269 51.6685 72.3008 51.2945 72.5189C51.092 72.6436 50.8271 72.7059 50.5623 72.7059ZM50.2974 71.7243C50.4532 71.7711 50.6713 71.8022 50.8427 71.6932C51.0297 71.5841 51.1076 71.3816 51.1387 71.2258C51.4348 69.9637 50.2818 67.9539 49.0354 67.5799C48.8796 67.5332 48.677 67.502 48.49 67.6111C48.3031 67.7201 48.2252 67.9227 48.194 68.0629C47.898 69.3561 49.0509 71.3504 50.2974 71.7243Z" fill="#00C5F6"/>
<path d="M53.1339 73.2665C53.1339 72.7212 53.0404 72.1447 52.9158 71.5682L54.0064 71.4748L52.8846 68.6079L51.794 68.7014C51.1552 67.564 50.345 66.5357 49.4257 65.7411V64.2921L47.1977 62.999V64.4479C46.2785 64.1675 45.4527 64.2454 44.8295 64.6661L43.7388 63.3106L42.617 64.8998L43.7233 66.2709C43.5986 66.6915 43.5051 67.1745 43.5051 67.7199C43.5051 68.2652 43.5986 68.8416 43.7233 69.4181L42.617 69.5116L43.7388 72.3784L44.8295 72.2849C45.4683 73.4223 46.2785 74.4506 47.1977 75.2452V76.6942L49.4257 77.9874V76.5384C50.345 76.8189 51.1707 76.741 51.794 76.3203L52.8846 77.6758L54.0064 76.0866L52.9158 74.7155C53.0404 74.2948 53.1339 73.8118 53.1339 73.2665ZM48.8181 73.0016C47.3379 72.5654 46.0448 70.3062 46.3875 68.8105C46.5589 68.1094 47.1198 67.7822 47.8209 67.9847C49.3011 68.421 50.5943 70.6801 50.2515 72.1759C50.0801 72.877 49.5036 73.2042 48.8181 73.0016Z" fill="#060607"/>
<path d="M3.59672 94.1967L2.20069 95.0017C2.06234 95.0897 1.81081 95.0771 1.63473 94.9765L0.314156 94.2093C0.150657 94.1087 0.125503 93.9704 0.276425 93.8823L1.67246 93.0774C1.81081 92.9894 2.06234 93.0019 2.22584 93.1026L3.54641 93.8697C3.72249 93.9704 3.74764 94.1087 3.59672 94.1967Z" fill="#060607"/>
<path d="M3.43308 98.0571L2.02448 98.8621C1.88613 98.9501 1.63459 98.9375 1.45852 98.8369L0.137948 98.0697C-0.0255514 97.9691 -0.0507051 97.8308 0.100217 97.7427L1.49625 96.9378C1.63459 96.8498 1.88613 96.8623 2.06221 96.963L3.38278 97.7301C3.55885 97.8308 3.57143 97.9691 3.43308 98.0571Z" fill="#060607"/>
<path d="M6.85356 96.0825L5.45753 96.8874C5.31918 96.9754 5.06764 96.9629 4.89157 96.8622L3.571 96.095C3.4075 95.9944 3.38234 95.8561 3.53327 95.768L4.92929 94.9631C5.06763 94.8751 5.31918 94.8877 5.49526 94.9883L6.81583 95.7555C6.97933 95.8435 7.00448 95.9944 6.85356 96.0825Z" fill="#060607"/>
<path d="M6.87881 100.045L5.48278 100.849C5.34444 100.938 5.0929 100.925 4.9294 100.824L3.60883 100.057C3.44533 99.9564 3.42018 99.8181 3.5711 99.73L4.96713 98.9251C5.10548 98.8371 5.35701 98.8496 5.52051 98.9503L6.84108 99.7175C7.00458 99.8181 7.01716 99.969 6.87881 100.045Z" fill="#060607"/>
<path d="M10.3 98.0698L8.90393 98.8747C8.76558 98.9627 8.51404 98.9501 8.33797 98.8495L7.0174 98.0823C6.8539 97.9817 6.82875 97.8434 6.97967 97.7553L8.3757 96.9504C8.51404 96.8624 8.76558 96.875 8.94166 96.9756L10.2622 97.7428C10.4257 97.8434 10.4509 97.9817 10.3 98.0698Z" fill="#060607"/>
<path d="M10.1374 101.931L8.7414 102.736C8.60305 102.824 8.35151 102.812 8.17544 102.711L6.85487 101.944C6.69137 101.843 6.66621 101.705 6.81714 101.617L8.21317 100.812C8.35151 100.724 8.60305 100.736 8.77913 100.837L10.0997 101.604C10.2506 101.705 10.2758 101.843 10.1374 101.931Z" fill="#060607"/>
<path d="M13.5579 99.9428L12.1618 100.748C12.0235 100.836 11.772 100.824 11.6085 100.723L10.2879 99.9554C10.1244 99.8548 10.0992 99.7164 10.2502 99.6284L11.6462 98.8235C11.7845 98.7355 12.0361 98.748 12.1996 98.8486L13.5201 99.6158C13.6836 99.7164 13.7088 99.8674 13.5579 99.9428Z" fill="#060607"/>
<path d="M13.3806 103.805L11.9846 104.61C11.8462 104.698 11.5947 104.685 11.4186 104.585L10.0981 103.818C9.94712 103.73 9.92197 103.591 10.0729 103.503L11.4689 102.698C11.6073 102.61 11.8588 102.623 12.0223 102.723L13.3429 103.491C13.5064 103.579 13.5315 103.73 13.3806 103.805Z" fill="#060607"/>
<path d="M16.8145 101.83L15.4184 102.635C15.2801 102.723 15.0286 102.711 14.8525 102.61L13.5319 101.843C13.3684 101.742 13.3433 101.604 13.4942 101.516L14.8902 100.711C15.0286 100.623 15.2801 100.635 15.4436 100.736L16.7642 101.503C16.9402 101.604 16.9654 101.742 16.8145 101.83Z" fill="#060607"/>
<path d="M20.2483 99.8432L18.8523 100.648C18.714 100.736 18.4624 100.723 18.2989 100.623L16.9784 99.8558C16.8149 99.7552 16.7897 99.6169 16.9406 99.5288L18.3367 98.7239C18.475 98.6359 18.7265 98.6484 18.89 98.7491L20.2106 99.5163C20.3741 99.6169 20.3867 99.7678 20.2483 99.8432Z" fill="#060607"/>
<path d="M23.6819 97.8687L22.2859 98.6736C22.1476 98.7616 21.896 98.749 21.7199 98.6484L20.3994 97.8812C20.2359 97.7806 20.2107 97.6423 20.3616 97.5542L21.7577 96.7493C21.896 96.6613 22.1476 96.6739 22.3236 96.7745L23.6442 97.5417C23.8077 97.6423 23.8203 97.7806 23.6819 97.8687Z" fill="#060607"/>
<path d="M27.1154 95.8814L25.7193 96.6863C25.581 96.7743 25.3295 96.7618 25.1534 96.6611L23.8328 95.894C23.6693 95.7933 23.6442 95.655 23.7951 95.567L25.1911 94.762C25.3295 94.674 25.581 94.6866 25.7445 94.7872L27.0651 95.5544C27.2411 95.655 27.2537 95.8059 27.1154 95.8814Z" fill="#060607"/>
<path d="M30.536 93.9067L29.14 94.7117C29.0016 94.7997 28.7501 94.7871 28.574 94.6865L27.2534 93.9193C27.0899 93.8187 27.0648 93.6804 27.2157 93.5923L28.6117 92.7873C28.7501 92.6993 29.0016 92.7119 29.1651 92.8125L30.4857 93.5798C30.6618 93.6804 30.6869 93.8186 30.536 93.9067Z" fill="#060607"/>
<path d="M20.2612 103.818L18.8651 104.622C18.7268 104.711 18.4752 104.698 18.3117 104.597L16.9912 103.83C16.8277 103.73 16.8025 103.591 16.9534 103.503L18.3495 102.698C18.4878 102.61 18.7394 102.623 18.9029 102.723L20.2234 103.491C20.3869 103.591 20.4121 103.73 20.2612 103.818Z" fill="#060607"/>
<path d="M23.6938 101.83L22.2977 102.635C22.1594 102.723 21.9079 102.711 21.7444 102.61L20.4238 101.843C20.2603 101.742 20.2351 101.604 20.3861 101.516L21.7821 100.711C21.9204 100.623 22.172 100.635 22.3355 100.736L23.656 101.503C23.8195 101.604 23.8321 101.755 23.6938 101.83Z" fill="#060607"/>
<path d="M27.1284 99.8559L25.7324 100.661C25.594 100.749 25.3425 100.736 25.1664 100.636L23.8458 99.8685C23.6823 99.7679 23.6572 99.6296 23.8081 99.5415L25.2041 98.7366C25.3425 98.6486 25.594 98.6611 25.7575 98.7618L27.0781 99.529C27.2542 99.6296 27.2667 99.7679 27.1284 99.8559Z" fill="#060607"/>
<path d="M30.5618 97.8687L29.1658 98.6736C29.0274 98.7616 28.7759 98.749 28.5998 98.6484L27.2793 97.8812C27.1158 97.7806 27.0906 97.6423 27.2415 97.5542L28.6376 96.7493C28.7759 96.6613 29.0274 96.6739 29.2035 96.7745L30.5241 97.5417C30.6876 97.6423 30.7002 97.7932 30.5618 97.8687Z" fill="#060607"/>
<path d="M27.6814 90.8137C27.6814 90.8011 27.6814 85.8584 27.6814 85.4434C27.6814 85.4057 27.6562 85.3679 27.6059 85.3554L16.488 86.3489C16.4754 86.3489 16.4754 86.3489 16.4628 86.3363L15.4441 80.1988C15.4189 80.1863 15.3812 80.1863 15.3435 80.1988L5.11848 86.0848C5.09332 86.0974 5.06817 86.0974 5.04301 86.0974L3.08103 85.5566C3.01814 85.544 2.95526 85.5817 2.95526 85.6446C2.95526 86.1477 2.95526 90.8514 2.96783 90.9143V90.9269C3.00556 91.2539 3.16906 91.5683 3.49606 91.757L13.8091 97.7436C14.6895 98.2592 15.7711 98.2592 16.6515 97.7436L27.1154 91.7444C27.4676 91.5432 27.6436 91.191 27.6562 90.8389L27.6814 90.8137Z" fill="#00C5F6"/>
<path d="M15.2551 98.611C14.6766 98.611 14.0981 98.46 13.5824 98.1582L3.26939 92.1716C2.8292 91.9201 2.55251 91.4799 2.48963 90.9642C2.47705 90.9014 2.47705 90.8762 2.47705 87.1534V85.6316C2.47705 85.4556 2.55251 85.2795 2.70343 85.1663C2.84178 85.0531 3.04301 85.0154 3.21909 85.0657L5.01758 85.5688L15.1168 79.7708C15.2929 79.6702 15.5193 79.6702 15.6953 79.7708L15.8966 79.884L16.8776 85.8077L27.6559 84.8393L27.744 84.8645C27.9955 84.9399 28.1716 85.1663 28.1716 85.4304L28.159 90.8762C28.1338 91.3918 27.8446 91.8698 27.3792 92.1465L16.9153 98.1456C16.4122 98.4726 15.8337 98.611 15.2551 98.611ZM3.47062 86.1725V87.166C3.47062 88.6752 3.47062 90.7756 3.47062 90.9014C3.4832 91.002 3.53351 91.2158 3.75989 91.3415L14.0729 97.3281C14.8024 97.7557 15.6953 97.7557 16.4248 97.3281L26.8887 91.329C27.1403 91.178 27.178 90.9265 27.1906 90.8259V85.9083L16.4374 86.8768L16.2236 86.8013L16.0098 86.6881L15.0539 80.9656L5.1685 86.6378L4.91696 86.5749L3.47062 86.1725Z" fill="#060607"/>
<path d="M27.618 85.3672L16.5 86.3607C16.4874 86.3607 16.4874 86.3607 16.4749 86.3482L15.1794 90.1338V98.1201C15.6951 98.1327 16.2233 98.0195 16.6761 97.7428L27.14 91.7436C27.4922 91.5424 27.6683 91.1903 27.6808 90.8381V90.8255C27.6808 90.8129 27.6808 85.8702 27.6808 85.4552C27.6934 85.4175 27.6557 85.3797 27.618 85.3672Z" fill="#060607"/>
<path d="M15.2551 98.6108C15.2174 98.6108 15.1922 98.6108 15.1545 98.6108L14.6766 98.5982L14.7017 89.9831L16.1858 85.644L16.5882 85.8578L27.6559 84.8643L27.7439 84.8894C27.9955 84.9649 28.1715 85.1913 28.1715 85.4554L28.159 90.9012C28.1338 91.4168 27.8445 91.9073 27.3792 92.1714L16.9152 98.1706C16.4122 98.4599 15.8462 98.6108 15.2551 98.6108ZM15.6701 90.222V97.5921C15.9342 97.5417 16.1984 97.4537 16.4373 97.3154L26.9013 91.3162C27.1528 91.1653 27.1905 90.9137 27.2031 90.8131V85.8956L16.8398 86.8263L15.6701 90.222Z" fill="#060607"/>
<path d="M4.56473 86.9516C4.56473 86.9516 4.71565 86.5366 4.9043 86.0084L3.09324 85.5053C3.03035 85.4927 2.96747 85.5304 2.96747 85.5933C2.96747 86.0964 2.96747 90.8001 2.98004 90.863V90.8756C3.01778 91.2026 3.18127 91.517 3.50827 91.7057L4.55215 92.3094V89.467V86.9516H4.56473Z" fill="#060607"/>
<path d="M5.04254 93.1649L3.2692 92.1336C2.82901 91.8821 2.55232 91.4419 2.50201 90.9262C2.48944 90.8633 2.48944 90.8382 2.48944 87.1154V85.5936C2.48944 85.4175 2.57747 85.2415 2.71582 85.1283C2.86674 85.0151 3.05539 84.9774 3.23147 85.0277L5.54561 85.6691L5.36954 86.1596C5.23119 86.5495 5.10542 86.889 5.05512 87.0274L5.04254 93.1649ZM3.47043 86.1219V87.1154C3.47043 88.6246 3.47043 90.725 3.47043 90.8508C3.48301 90.9514 3.53332 91.1652 3.7597 91.2909L4.06154 91.467L4.09927 86.7884C4.09927 86.7884 4.16216 86.6124 4.26277 86.3357L3.47043 86.1219Z" fill="#060607"/>
<path d="M13.884 92.4103L3.52073 86.3986C2.79127 85.971 2.79127 84.9271 3.52073 84.4995L14.035 78.4626C14.8902 77.9721 15.9341 77.9721 16.7767 78.4626L27.1401 84.4743C27.8695 84.9019 27.8695 85.9584 27.1401 86.3734L16.6258 92.4103C15.7831 92.9008 14.7267 92.9008 13.884 92.4103Z" fill="white"/>
<path d="M15.2554 93.2778C14.6895 93.2778 14.1361 93.1269 13.633 92.8376L3.2697 86.8259C2.7792 86.5366 2.47736 86.0209 2.47736 85.455C2.47736 84.8764 2.7792 84.3734 3.2697 84.0841L13.7839 78.0472C14.7775 77.4687 16.0226 77.4687 17.0162 78.0472L27.3795 84.0589C27.87 84.3482 28.1719 84.8639 28.1719 85.4298C28.1719 86.0084 27.87 86.5114 27.3795 86.8007L16.8653 92.8376C16.3748 93.1269 15.8214 93.2778 15.2554 93.2778ZM15.4063 78.588C15.0165 78.588 14.6266 78.6886 14.287 78.8899L3.77277 84.9268C3.49608 85.0777 3.47093 85.3418 3.47093 85.455C3.47093 85.5682 3.49608 85.8197 3.77277 85.9832L14.1361 91.9949C14.8278 92.3974 15.6956 92.3974 16.3873 91.9949L26.9016 85.9581C27.1783 85.8071 27.2034 85.543 27.2034 85.4298C27.2034 85.3292 27.1783 85.0651 26.9016 84.9016L16.5383 78.8899C16.1861 78.6886 15.7962 78.588 15.4063 78.588Z" fill="#060607"/>
<path d="M22.7383 75.0294L17.7956 72.1368C17.5818 72.011 17.3932 72.0236 17.2548 72.1116L11.2431 75.8595C11.1299 75.935 11.0922 76.0733 11.155 76.1865L16.953 82.4121C16.9781 82.4498 16.9907 82.4875 16.9907 82.5378V84.5501C16.9907 85.1412 19.3426 83.4434 19.7828 83.6949C19.8205 83.72 19.8457 83.7452 19.8708 83.7829L16.9027 85.6317C16.9656 85.7449 17.1165 85.7827 17.2297 85.7072L23.2666 81.9467C23.2666 81.9467 23.5307 81.6323 23.5307 81.3179V76.5512C23.5433 75.9727 23.1785 75.2936 22.7383 75.0294Z" fill="white"/>
<path d="M17.1171 86.2225C17.0542 86.2225 17.0039 86.2099 16.941 86.1973C16.7524 86.147 16.5889 86.0338 16.4883 85.8577L16.2367 85.4427L16.8278 85.078C16.8153 85.0654 16.7901 85.0654 16.7775 85.0528C16.6015 84.9396 16.5008 84.751 16.5008 84.5372V82.6381L10.7406 76.4377C10.5394 76.0981 10.64 75.6579 10.9796 75.4441L16.9913 71.6962C17.2932 71.495 17.6705 71.495 18.0352 71.7088L22.9905 74.614C23.5816 74.9536 24.0344 75.7963 24.0344 76.5634V81.3049C24.0344 81.7703 23.72 82.1727 23.6571 82.2482L23.5313 82.3488L17.4944 86.1093C17.3938 86.1847 17.2555 86.2225 17.1171 86.2225ZM11.7594 76.1107L17.3812 82.1476C17.4441 82.2608 17.4818 82.3865 17.4818 82.5249V84.0341C17.6831 83.9461 17.922 83.8329 18.1107 83.7323C19.054 83.2669 19.6199 83.0028 20.0349 83.2543C20.0727 83.2669 20.0978 83.2921 20.123 83.3172L22.9402 81.569C23.0031 81.481 23.0534 81.3678 23.0534 81.3049V76.5509C23.0534 76.1107 22.7641 75.6076 22.5 75.4567L17.5573 72.564L11.7594 76.1107Z" fill="#060607"/>
<path d="M12.7022 81.531C12.7022 81.531 12.6896 81.6819 12.6645 81.9334L16.8777 85.4801C16.9909 85.6688 17.2425 85.7316 17.4311 85.6185L23.3171 81.946C23.3171 81.946 23.5812 81.6316 23.5812 81.3172V76.8524C23.5812 76.7266 23.4428 76.6512 23.3297 76.714L17.3808 80.4242C17.3556 80.4368 17.3431 80.4619 17.3305 80.4871L12.7022 81.531Z" fill="#060607"/>
<path d="M17.2176 86.1593C17.1422 86.1593 17.0793 86.1467 17.0038 86.1342C16.8026 86.0839 16.6265 85.9707 16.5008 85.8072L12.1366 82.1347L12.2372 81.1286L17.0667 80.0344C17.0793 80.0218 17.0919 80.0218 17.1045 80.0092L23.0533 76.2991C23.2545 76.1733 23.5061 76.1607 23.7199 76.2865C23.9337 76.3997 24.0595 76.6261 24.0595 76.8524V81.3046C24.0595 81.77 23.745 82.1725 23.6822 82.2479L23.5564 82.3485L17.6704 86.021C17.5446 86.1216 17.3811 86.1593 17.2176 86.1593ZM13.3691 81.8832L17.2428 85.1532L22.9778 81.5813C23.0407 81.4933 23.091 81.3801 23.091 81.3172V77.4436L17.7081 80.8016L17.6453 80.9148L13.3691 81.8832Z" fill="#060607"/>
<path d="M16.4996 85.7949L11.5569 82.9022C11.1167 82.6507 10.7646 81.9715 10.7646 81.3804V76.6263C10.7646 76.0352 11.1167 75.7711 11.5569 76.0227L16.4996 78.9153C16.9398 79.1669 17.292 79.846 17.292 80.4371V85.1912C17.3045 85.7823 16.9398 86.0464 16.4996 85.7949Z" fill="#00C5F6"/>
<path d="M16.827 86.3856C16.6383 86.3856 16.4497 86.3352 16.261 86.2221L11.3057 83.3168C10.7146 82.9772 10.2744 82.1471 10.2744 81.38V76.6259C10.2744 76.1354 10.4631 75.7455 10.7901 75.5569C11.0919 75.3808 11.4566 75.3934 11.7962 75.5946L16.7515 78.4999C17.3426 78.8394 17.7954 79.6821 17.7954 80.4493V85.2033C17.7954 85.6938 17.6067 86.0837 17.2797 86.2724C17.1288 86.3478 16.9779 86.3856 16.827 86.3856ZM16.7515 85.3668C16.7767 85.3794 16.7892 85.392 16.8018 85.392C16.7892 85.3668 16.8144 85.3039 16.8144 85.1907V80.4493C16.8144 80.0091 16.5251 79.506 16.261 79.3551L11.3057 76.4498C11.2806 76.4373 11.268 76.4247 11.2554 76.4247C11.268 76.4498 11.2428 76.5127 11.2428 76.6259V81.38C11.2428 81.8201 11.5321 82.3232 11.7962 82.4741L16.7515 85.3668Z" fill="#060607"/>
<path d="M22.9453 79.418L17.6442 82.6103L18.0335 83.2567L23.3346 80.0645L22.9453 79.418Z" fill="#00C5F6"/>
<path d="M13.0038 73.3317L18.4621 76.4759L21.6566 74.6145L16.2612 71.4326L13.0038 73.3317Z" fill="white"/>
<path d="M18.4626 77.0414L12.0232 73.3312L16.2616 70.8662L22.6381 74.6266L18.4626 77.0414ZM13.9852 73.3312L18.4626 75.9095L20.6887 74.6266L16.2491 71.9981L13.9852 73.3312Z" fill="#060607"/>
</g>
<defs>
<clipPath id="clip0_11_1461">
<rect width="100" height="136" fill="white"/>
</clipPath>
</defs>
</svg>
