<svg width="98" height="127" viewBox="0 0 98 127" fill="none" xmlns="http://www.w3.org/2000/svg">
<g clip-path="url(#clip0_11_2051)">
<path d="M40.1022 114.881L38.5587 115.77C38.4057 115.868 38.1276 115.854 37.9329 115.743L36.4728 114.894C36.2921 114.783 36.2643 114.63 36.4311 114.533L37.9746 113.643C38.1276 113.546 38.4057 113.559 38.5865 113.671L40.0466 114.519C40.2413 114.63 40.2691 114.783 40.1022 114.881Z" fill="#060607"/>
<path d="M39.9223 119.15L38.3648 120.04C38.2119 120.137 37.9338 120.123 37.7391 120.012L36.279 119.164C36.0982 119.053 36.0704 118.9 36.2373 118.802L37.7808 117.912C37.9338 117.815 38.2119 117.829 38.4065 117.94L39.8666 118.788C40.0613 118.9 40.0752 119.053 39.9223 119.15Z" fill="#060607"/>
<path d="M43.704 116.966L42.1604 117.856C42.0075 117.954 41.7294 117.94 41.5347 117.828L40.0746 116.98C39.8938 116.869 39.866 116.716 40.0329 116.619L41.5764 115.729C41.7294 115.631 42.0075 115.645 42.2021 115.756L43.6622 116.605C43.843 116.702 43.8708 116.869 43.704 116.966Z" fill="#060607"/>
<path d="M43.732 121.346L42.1885 122.236C42.0355 122.334 41.7574 122.32 41.5766 122.209L40.1165 121.36C39.9357 121.249 39.9079 121.096 40.0748 120.999L41.6183 120.109C41.7713 120.011 42.0494 120.025 42.2302 120.137L43.6903 120.985C43.871 121.096 43.8849 121.263 43.732 121.346Z" fill="#060607"/>
<path d="M47.5143 119.164L45.9708 120.054C45.8178 120.151 45.5397 120.137 45.345 120.026L43.8849 119.178C43.7042 119.066 43.6764 118.913 43.8432 118.816L45.3868 117.926C45.5397 117.829 45.8178 117.843 46.0125 117.954L47.4726 118.802C47.6534 118.913 47.6812 119.066 47.5143 119.164Z" fill="#060607"/>
<path d="M47.3332 123.433L45.7897 124.323C45.6367 124.42 45.3586 124.406 45.1639 124.295L43.7039 123.447C43.5231 123.336 43.4953 123.183 43.6621 123.085L45.2057 122.195C45.3586 122.098 45.6367 122.112 45.8314 122.223L47.2915 123.071C47.4584 123.183 47.4862 123.336 47.3332 123.433Z" fill="#060607"/>
<path d="M51.1159 121.235L49.5724 122.125C49.4194 122.223 49.1413 122.209 48.9605 122.098L47.5004 121.249C47.3196 121.138 47.2918 120.985 47.4587 120.888L49.0022 119.998C49.1552 119.9 49.4333 119.914 49.6141 120.026L51.0742 120.874C51.2549 120.985 51.2828 121.152 51.1159 121.235Z" fill="#060607"/>
<path d="M50.9208 125.505L49.3773 126.395C49.2244 126.492 48.9462 126.478 48.7516 126.367L47.2915 125.519C47.1246 125.421 47.0968 125.268 47.2637 125.171L48.8072 124.281C48.9601 124.184 49.2383 124.198 49.419 124.309L50.8791 125.157C51.0599 125.254 51.0877 125.421 50.9208 125.505Z" fill="#060607"/>
<path d="M54.7167 123.321L53.1732 124.211C53.0202 124.309 52.7421 124.295 52.5474 124.184L51.0873 123.335C50.9066 123.224 50.8788 123.071 51.0456 122.974L52.5891 122.084C52.7421 121.986 53.0202 122 53.201 122.112L54.6611 122.96C54.8558 123.071 54.8836 123.224 54.7167 123.321Z" fill="#060607"/>
<path d="M58.5132 121.124L56.9696 122.014C56.8167 122.111 56.5386 122.097 56.3578 121.986L54.8977 121.138C54.7169 121.026 54.6891 120.873 54.856 120.776L56.3995 119.886C56.5525 119.789 56.8306 119.803 57.0114 119.914L58.4714 120.762C58.6522 120.873 58.6661 121.04 58.5132 121.124Z" fill="#060607"/>
<path d="M62.3098 118.941L60.7663 119.831C60.6133 119.928 60.3352 119.914 60.1405 119.803L58.6804 118.955C58.4996 118.844 58.4718 118.691 58.6387 118.593L60.1822 117.703C60.3352 117.606 60.6133 117.62 60.808 117.731L62.2681 118.579C62.4488 118.691 62.4627 118.844 62.3098 118.941Z" fill="#060607"/>
<path d="M66.1054 116.743L64.5619 117.633C64.4089 117.731 64.1308 117.717 63.9361 117.606L62.476 116.757C62.2952 116.646 62.2674 116.493 62.4343 116.396L63.9778 115.506C64.1308 115.409 64.4089 115.422 64.5897 115.534L66.0498 116.382C66.2444 116.493 66.2583 116.66 66.1054 116.743Z" fill="#060607"/>
<path d="M69.8886 114.561L68.3451 115.451C68.1921 115.548 67.914 115.534 67.7193 115.423L66.2592 114.575C66.0784 114.463 66.0506 114.31 66.2175 114.213L67.761 113.323C67.914 113.226 68.1921 113.24 68.3729 113.351L69.833 114.199C70.0276 114.31 70.0555 114.463 69.8886 114.561Z" fill="#060607"/>
<path d="M58.5279 125.519L56.9844 126.409C56.8314 126.506 56.5533 126.492 56.3726 126.381L54.9125 125.533C54.7317 125.421 54.7039 125.268 54.8708 125.171L56.4143 124.281C56.5672 124.184 56.8454 124.198 57.0261 124.309L58.4862 125.157C58.667 125.268 58.6948 125.421 58.5279 125.519Z" fill="#060607"/>
<path d="M62.324 123.321L60.7805 124.211C60.6275 124.309 60.3494 124.295 60.1686 124.184L58.7086 123.335C58.5278 123.224 58.5 123.071 58.6668 122.974L60.2104 122.084C60.3633 121.986 60.6414 122 60.8222 122.112L62.2823 122.96C62.4631 123.071 62.477 123.238 62.324 123.321Z" fill="#060607"/>
<path d="M66.1197 121.138L64.5761 122.028C64.4232 122.126 64.1451 122.112 63.9504 122L62.4903 121.152C62.3095 121.041 62.2817 120.888 62.4486 120.791L63.9921 119.901C64.1451 119.803 64.4232 119.817 64.6039 119.928L66.064 120.777C66.2587 120.888 66.2726 121.041 66.1197 121.138Z" fill="#060607"/>
<path d="M69.9162 118.941L68.3727 119.831C68.2197 119.928 67.9416 119.914 67.747 119.803L66.2869 118.955C66.1061 118.844 66.0783 118.691 66.2451 118.593L67.7887 117.703C67.9416 117.606 68.2197 117.62 68.4144 117.731L69.8745 118.579C70.0553 118.691 70.0692 118.858 69.9162 118.941Z" fill="#060607"/>
<path d="M18.0403 18.5428C18.0122 18.4681 18.0309 18.3934 18.1056 18.3467L24.5763 14.3877C24.8658 14.1262 25.3606 14.1729 25.8742 14.6024L28.2832 16.6193C28.4046 16.722 40.0948 26.3767 52.9988 24.0144C53.2603 23.9677 53.5404 23.949 53.8298 23.977C55.109 24.0984 56.547 24.9388 57.8168 26.2927C58.1156 26.6101 58.4051 26.9649 58.6759 27.3291C71.0664 44.1828 82.878 48.2632 83.3822 48.4312L85.7725 49.2062C86.5848 49.4677 87.3505 50.6348 87.3318 51.5872L87.2851 54.3884C86.7156 90.6075 76.6314 104.706 68.2559 110.169L60.4126 114.959L59.8804 113.409C58.3117 113.633 57.2753 113.558 57.0605 113.539H57.0419C56.2575 113.465 55.3705 112.961 54.5862 112.12L54.5675 112.092C53.4844 110.944 30.3467 85.7521 25.2859 34.7428L21.7938 27.105L18.0403 18.5428Z" fill="#060607"/>
<path d="M59.5159 113.987C58.1246 114.146 57.2003 114.08 56.9948 114.062C56.0704 113.978 55.0807 113.417 54.175 112.456C53.1852 111.4 29.8609 86.078 24.7627 34.882L21.2986 27.3095L17.545 18.7566C17.4143 18.4391 17.5264 18.075 17.8158 17.8882L24.2585 13.9479C24.7721 13.5278 25.5377 13.6211 26.2193 14.1907L28.619 16.2075C29.0952 16.5997 40.4026 25.7782 52.8958 23.4812C53.2133 23.4252 53.5401 23.4065 53.8762 23.4439C55.2955 23.5839 56.8361 24.4616 58.2087 25.9276C58.5075 26.2544 58.8156 26.6185 59.1051 27.0107C71.4022 43.7243 83.0644 47.7487 83.5499 47.9074L85.9402 48.6824C86.9673 49.0186 87.8917 50.3911 87.8731 51.577L87.8264 54.3781C87.2475 90.8307 77.0232 105.07 68.5357 110.607L60.1228 115.752L59.5159 113.987ZM53.0919 24.5363C40.1225 26.9173 28.4323 17.4401 27.9374 17.0292L25.5284 15.0124C25.2296 14.7603 24.9962 14.7323 24.9308 14.7883L18.6655 18.6352L22.2884 26.88L25.7805 34.5178L25.8272 34.6859C30.8693 85.5831 53.9789 110.682 54.9873 111.746C55.6783 112.484 56.4439 112.932 57.1162 112.997C57.2936 113.016 58.2834 113.081 59.8053 112.866L60.2442 112.801L60.7017 114.136L67.9567 109.701C76.2108 104.323 86.1737 90.3451 86.7432 54.3595L86.7899 51.5583C86.7993 50.8487 86.1924 49.8869 85.6041 49.7002L83.2044 48.9252C82.7002 48.7571 70.7299 44.6207 58.2274 27.6363C57.9566 27.2722 57.6858 26.936 57.415 26.6466C56.2385 25.386 54.9033 24.6017 53.7642 24.499C53.6801 24.4897 53.6054 24.4897 53.5214 24.4897C53.3813 24.499 53.2319 24.5177 53.0919 24.5363Z" fill="#060607"/>
<path d="M24.5769 14.3877C24.8664 14.1262 25.3613 14.1729 25.8748 14.6024L28.2838 16.6193C28.4052 16.722 40.0954 26.386 52.9994 24.0144C53.2609 23.9677 53.541 23.949 53.8305 23.977C55.1097 24.0984 56.5476 24.9388 57.8175 26.2927C58.1162 26.6101 58.4057 26.9649 58.6765 27.3291C71.067 44.1828 82.8786 48.2631 83.3828 48.4312L85.7731 49.2062C86.2026 49.3463 86.6135 49.7384 86.9029 50.2053L67.4441 61.2419L26.4444 43.9774C25.9962 40.9988 25.6134 37.9175 25.2959 34.7428L21.8038 27.105L18.0409 18.5428C18.0129 18.4681 18.0315 18.3934 18.1062 18.3467L24.5769 14.3877Z" fill="white"/>
<path d="M25.9584 44.3501L25.9118 44.0513C25.4636 41.0353 25.0807 37.9541 24.7726 34.8728L21.3085 27.3003L17.5549 18.738C17.4242 18.4206 17.5363 18.0564 17.8257 17.8697L24.2684 13.9294C24.7819 13.5092 25.5476 13.6026 26.2292 14.1721L28.6289 16.189C29.1051 16.5811 40.4125 25.7596 52.9057 23.4627C53.2231 23.4067 53.55 23.388 53.8861 23.4253C55.3054 23.5654 56.846 24.4431 58.2186 25.909C58.5174 26.2358 58.8255 26.6 59.1149 26.9922C71.4121 43.7058 83.0743 47.7301 83.5598 47.8889L85.9501 48.6639C86.473 48.8319 86.9959 49.2801 87.3694 49.8964L87.6589 50.3726L67.4904 61.82L25.9584 44.3501ZM85.6047 49.7096L83.205 48.9346C82.7008 48.7666 70.7305 44.6302 58.2279 27.6458C57.9571 27.2816 57.6863 26.9455 57.4156 26.656C56.2391 25.3955 54.9039 24.6112 53.7647 24.5085C53.5313 24.4898 53.3072 24.4991 53.0831 24.5365C40.1137 26.9175 28.4235 17.4402 27.9286 17.0293L25.5196 15.0125C25.2208 14.7604 24.9874 14.7324 24.922 14.7884L18.6567 18.6353L22.2796 26.8801L25.7717 34.518L25.8184 34.686C26.1172 37.6739 26.4813 40.6712 26.9202 43.6031L67.3971 60.6435L86.0995 50.0364C85.9408 49.8777 85.7634 49.7563 85.6047 49.7096Z" fill="#060607"/>
<path d="M47.9189 116.154C46.7237 114.884 18.656 84.3322 17.6943 22.1088L17.6569 19.233C17.6383 18.262 18.4133 17.9819 19.2256 18.6635L21.6346 20.6803C21.756 20.783 33.4462 30.4471 46.3503 28.0754C46.6117 28.0287 46.8918 28.01 47.1813 28.0381C48.4605 28.1594 49.8984 28.9998 51.1683 30.3537C51.467 30.6712 51.7565 31.0259 52.0273 31.39C64.4271 48.2438 76.2387 52.3148 76.7336 52.4829L79.1239 53.2579C79.9363 53.5193 80.7019 54.6865 80.6832 55.6389L80.6366 58.4401C79.6748 119.552 51.6164 117.704 50.4213 117.591H50.4026C49.6183 117.517 48.7312 117.013 47.9469 116.172L47.9189 116.154ZM72.8306 58.1039C67.5738 55.1814 59.0489 49.1962 50.1598 37.7861C49.5342 36.9831 48.7499 36.5256 48.1243 36.6003C39.0859 37.6274 30.673 33.8645 25.4909 30.7739C24.8186 30.3724 24.277 30.7178 24.3144 31.5115C26.1912 73.529 40.888 98.0672 47.3867 106.956C48.4605 108.422 50.4213 110.318 51.4857 110.075C57.9377 108.618 72.149 99.8413 74.0351 60.2234C74.0631 59.4484 73.5122 58.4774 72.8306 58.1039Z" fill="#00C5F6"/>
<path d="M50.347 118.133C49.4226 118.049 48.4328 117.489 47.5551 116.555L47.5365 116.527C46.3413 115.248 18.1335 84.5567 17.1718 22.1187L17.1251 19.2428C17.1158 18.5892 17.3772 18.0943 17.8534 17.8702C18.367 17.6275 18.9926 17.7675 19.5808 18.2624L21.9805 20.2792C22.4567 20.6714 33.7734 29.8499 46.2573 27.5529C46.5747 27.4969 46.9015 27.4782 47.2283 27.5156C48.6476 27.6556 50.1882 28.5333 51.5608 29.9993C51.8689 30.3261 52.1677 30.6902 52.4572 31.0824C64.7543 47.796 76.4165 51.8204 76.9021 51.9791L79.2924 52.7541C80.3195 53.0903 81.2439 54.4628 81.2252 55.6486L81.1785 58.4498C80.6556 91.4009 72.1307 105.883 65.0624 112.232C59.096 117.601 53.3162 118.161 51.1593 118.161C50.7485 118.161 50.4684 118.143 50.347 118.133ZM46.444 28.608C33.4746 30.989 21.7844 21.5118 21.2895 21.1009L18.8805 19.0841C18.5911 18.8413 18.3763 18.8133 18.3016 18.8413C18.2456 18.8693 18.1896 19 18.1896 19.2335L18.2363 22.1093C19.198 84.1272 47.1256 114.529 48.3115 115.79L48.3301 115.818C49.0211 116.555 49.7867 117.003 50.459 117.069C50.7391 117.097 57.4526 117.629 64.3341 111.448C71.2344 105.238 79.5725 91.0087 80.0861 58.4498L80.1327 55.6486C80.1421 54.939 79.5352 53.9773 78.9469 53.7905L76.5472 53.0156C76.043 52.8475 64.0727 48.7111 51.5702 31.7267C51.3087 31.3625 51.0286 31.0357 50.7578 30.7369C49.5813 29.4764 48.2461 28.6921 47.107 28.5894C47.0229 28.58 46.9482 28.58 46.8642 28.58C46.7335 28.5707 46.5841 28.58 46.444 28.608ZM46.9482 107.265C40.6082 98.5906 25.6687 73.8562 23.7732 31.5213C23.7452 30.933 23.96 30.4568 24.3708 30.214C24.763 29.9806 25.2765 30.0086 25.7621 30.2981C31.0936 33.4727 39.2824 37.0582 48.0594 36.0498C48.8717 35.9564 49.8334 36.4793 50.5804 37.4411C59.292 48.6177 67.6302 54.5842 73.0925 57.6188C73.9515 58.095 74.6144 59.2622 74.5677 60.2332C72.5509 102.587 56.4815 109.478 51.5982 110.579C51.4955 110.598 51.3927 110.617 51.29 110.617C49.8054 110.626 47.8353 108.478 46.9482 107.265ZM73.494 60.1865C73.522 59.6263 73.0738 58.842 72.5696 58.5619C67.0233 55.4806 58.5544 49.4207 49.7401 38.104C49.1705 37.3664 48.5636 37.0676 48.1807 37.1143C39.1143 38.1507 30.6828 34.4718 25.2112 31.2131C25.0338 31.1011 24.931 31.1198 24.9124 31.1291C24.8844 31.1478 24.8283 31.2505 24.8377 31.4746C26.7145 73.5108 41.5233 98.0397 47.8073 106.63C49.0024 108.264 50.7298 109.674 51.3554 109.543C56.052 108.488 71.5051 101.784 73.494 60.1865Z" fill="#060607"/>
<path d="M25.4826 30.7649C30.6741 33.8555 39.0776 37.6277 48.116 36.5913C48.7416 36.5166 49.5259 36.9741 50.1515 37.7771C59.0406 49.1872 67.5655 55.1724 72.8223 58.0949C73.504 58.4778 74.0548 59.4488 74.0175 60.2145C72.1314 99.8323 57.9201 108.609 51.4681 110.066C50.4036 110.309 48.4335 108.413 47.369 106.947C40.8703 98.0582 26.1735 73.52 24.2968 31.5025C24.2687 30.7088 24.8103 30.3634 25.4826 30.7649Z" fill="#FBFBFD"/>
<path d="M25.4829 30.7649C26.4353 31.3345 27.4998 31.9227 28.6483 32.5016C30.8612 73.4174 45.2125 97.3954 51.6179 106.154C52.3648 107.181 53.5507 108.395 54.5591 108.964C53.4199 109.515 52.3648 109.861 51.4685 110.066C50.404 110.309 48.4339 108.413 47.3694 106.947C40.8707 98.0583 26.1739 73.5201 24.2971 31.5026C24.2691 30.7089 24.8107 30.3634 25.4829 30.7649Z" fill="#060607"/>
<path d="M46.9482 107.264C40.6083 98.5894 25.6687 73.8551 23.7732 31.5201C23.7452 30.9319 23.96 30.4557 24.3708 30.2129C24.763 29.9795 25.2765 30.0075 25.7621 30.297C26.7798 30.9039 27.8349 31.4828 28.89 32.015L29.1702 32.1551L29.1888 32.4632C31.4018 73.4723 45.9212 97.4316 52.0557 105.836C52.7187 106.741 53.8671 107.955 54.8289 108.497L55.7252 109.001L54.7915 109.449C53.6991 109.972 52.6253 110.355 51.5889 110.588C51.4861 110.607 51.3834 110.626 51.2807 110.626C49.8054 110.626 47.8259 108.478 46.9482 107.264ZM51.1874 106.47C45.0061 98.0199 30.4214 73.9485 28.1337 32.8367C27.144 32.3325 26.1636 31.7909 25.2112 31.2213C25.0338 31.1093 24.9311 31.128 24.9124 31.1373C24.8844 31.156 24.8284 31.2587 24.8377 31.4828C26.7145 73.5283 41.5233 98.0479 47.8073 106.639C49.0024 108.273 50.7298 109.692 51.3554 109.552C52.037 109.393 52.7467 109.169 53.4656 108.87C52.6066 108.188 51.7569 107.245 51.1874 106.47Z" fill="#00C5F6"/>
<path d="M86.6435 49.7402L79.8458 53.5962L80.3756 54.5302L87.1733 50.6742L86.6435 49.7402Z" fill="#060607"/>
<path d="M82.5053 47.8086L75.7076 51.6646L76.2374 52.5986L83.0351 48.7425L82.5053 47.8086Z" fill="#060607"/>
<path d="M54.5685 23.7725L47.7708 27.6286L48.3006 28.5626L55.0983 24.7065L54.5685 23.7725Z" fill="#060607"/>
<path d="M60.1337 29.3711L53.336 33.2272L53.8658 34.1611L60.6635 30.3051L60.1337 29.3711Z" fill="#060607"/>
<path d="M27.9173 15.9014L20.7346 20.1734L21.2835 21.0963L28.4662 16.8243L27.9173 15.9014Z" fill="#060607"/>
<path d="M81.0013 65.7231L86.3235 62.5204L86.3702 61.2412L81.02 64.4719L81.0013 65.7231Z" fill="#00C5F6"/>
<path d="M72.1211 102.643L77.4433 99.4302L78.3957 97.5908L73.0361 100.822L72.1211 102.643Z" fill="#00C5F6"/>
<path d="M40.2623 28.5605L47.2372 24.7136L46.7143 23.7705L38.1895 28.4858L40.2623 28.5605Z" fill="#060607"/>
<path d="M50.6131 104.196L47.1686 106.331L47.7344 107.244L51.1789 105.109L50.6131 104.196Z" fill="#00C5F6"/>
<path d="M28.7323 36.209L24.5294 38.8392L25.099 39.7495L29.302 37.1192L28.7323 36.209Z" fill="#00C5F6"/>
<path d="M29.3389 42.1924L25.1365 44.8231L25.7062 45.7332L29.9087 43.1025L29.3389 42.1924Z" fill="#00C5F6"/>
<path d="M46.9478 107.264C40.6078 98.5895 25.6682 73.8551 23.7728 31.5201C23.7447 30.9319 23.9595 30.4557 24.3703 30.2129C24.7625 29.9795 25.2761 30.0075 25.7616 30.297C31.0931 33.4716 39.2819 37.0571 48.0589 36.0487C48.8712 35.9553 49.833 36.4782 50.5799 37.4399C59.2916 48.6166 67.6297 54.5831 73.092 57.6177C73.951 58.0939 74.614 59.261 74.5673 60.2321C72.5504 102.586 56.4811 109.477 51.5977 110.579C51.495 110.598 51.3923 110.616 51.2896 110.616C49.8049 110.626 47.8255 108.478 46.9478 107.264ZM48.1803 37.1225C39.1138 38.1589 30.6823 34.48 25.2107 31.2213C25.0333 31.1093 24.9306 31.128 24.9119 31.1373C24.8839 31.156 24.8279 31.2587 24.8372 31.4828C26.714 73.5283 41.5228 98.0479 47.8068 106.639C49.0019 108.273 50.7293 109.692 51.3549 109.552C56.0422 108.487 71.5047 101.793 73.4842 60.1948C73.5122 59.6345 73.064 58.8502 72.5598 58.5701C67.0135 55.4888 58.5446 49.4383 49.7302 38.1122C49.1887 37.4213 48.6098 37.1225 48.2456 37.1225C48.227 37.1225 48.2083 37.1225 48.1803 37.1225Z" fill="#060607"/>
<path d="M61.9989 68.6828C61.9989 67.7304 61.42 66.6286 60.7104 66.2178L45.8455 57.6369C45.5747 57.4781 45.3226 57.4501 45.1078 57.5248C41.1675 58.1411 39.6642 60.8115 39.6642 60.8115L44.557 69.6819V70.5036C44.557 73.7529 46.5364 77.5345 48.9735 78.9444L49.9819 79.5233L54.361 87.4786C56.9381 87.1332 59.5059 85.051 60.6076 84.0519C60.8131 83.9118 60.9531 83.7531 60.9531 83.7531L61.1772 83.5197C61.6908 82.8567 61.9989 81.8576 61.9989 80.5784V68.6828Z" fill="white"/>
<path d="M54.0624 88.0574L49.5712 79.9154L48.6935 79.4112C46.0604 77.8892 44.0062 73.9769 44.0062 70.5035V69.8218L39.0388 60.8114L39.1882 60.55C39.2536 60.4286 40.8502 57.6554 44.9773 57.0018C45.2387 56.9271 45.6309 56.8991 46.1071 57.1792L60.972 65.7601C61.8497 66.2644 62.5313 67.5529 62.5313 68.692V80.569C62.5313 81.9229 62.2045 83.0527 61.5882 83.8463L61.3268 84.1265C61.3268 84.1265 61.1587 84.3225 60.8973 84.5C59.6554 85.6298 57.069 87.6559 54.4172 88.0108L54.0624 88.0574ZM40.2993 60.8301L45.0987 69.5324V70.4941C45.0987 73.5661 46.9568 77.1422 49.2444 78.4681L50.3836 79.1217L54.6507 86.8716C56.9943 86.4047 59.3193 84.4813 60.2437 83.6409C60.4397 83.5009 60.5331 83.3982 60.5331 83.3888L60.7759 83.1274C61.2054 82.5672 61.4482 81.6708 61.4482 80.5596V68.6827C61.4482 67.9357 60.972 67.002 60.4304 66.6845L45.5749 58.113C45.4535 58.0476 45.3508 58.0196 45.2948 58.0383L45.2014 58.0663C42.2228 58.5238 40.7569 60.1952 40.2993 60.8301Z" fill="#060607"/>
<path d="M60.6635 84.0617C60.869 83.9217 61.009 83.7629 61.009 83.7629L61.2331 83.5295C61.7467 82.8666 62.0548 81.8675 62.0548 80.5883V68.702C62.0548 68.1698 61.5879 67.152 61.3078 66.6758L55.0892 70.5414C55.0892 70.5414 52.8296 75.957 50.542 80.4389L54.4263 87.4885C56.9847 87.1337 59.5524 85.0515 60.6635 84.0617Z" fill="#060607"/>
<path d="M43.8569 81.9798L52.4658 86.9472C54.9029 88.3571 56.8823 86.8631 56.8823 83.6045V71.7275C56.8823 70.7751 56.3034 69.6733 55.5938 69.2625L40.7289 60.6816C40.0193 60.2707 39.4404 60.7096 39.4404 61.6526V73.5389C39.4311 76.7976 41.4106 80.5699 43.8569 81.9798Z" fill="#00C5F6"/>
<path d="M54.2211 88.0209C53.5769 88.0209 52.8859 87.8155 52.195 87.414L43.586 82.4465C40.9529 80.9246 38.8987 77.0123 38.8987 73.5388V61.6619C38.8987 60.9616 39.1602 60.4107 39.6177 60.1492C40.0192 59.9158 40.5234 59.9438 41.009 60.2146L55.8738 68.7955C56.7515 69.2997 57.4331 70.5883 57.4331 71.7274V83.6137C57.4331 85.5278 56.7795 86.9938 55.6311 87.6567C55.1922 87.8995 54.7253 88.0209 54.2211 88.0209ZM40.2153 61.0736C40.1873 61.0736 40.1686 61.0736 40.1499 61.083C40.0659 61.1297 39.9725 61.3351 39.9725 61.6525V73.5388C39.9725 76.6108 41.8306 80.1869 44.1183 81.5128L52.7272 86.4802C53.6236 87.0031 54.4359 87.0778 55.0708 86.7137C55.8645 86.2561 56.322 85.1263 56.322 83.6137V71.7274C56.322 70.9804 55.8458 70.0467 55.3043 69.7292L40.4394 61.1483C40.3647 61.1016 40.2807 61.0736 40.2153 61.0736Z" fill="#060607"/>
<path d="M49.7024 79.8408V73.6875H48.6286V77.9827L47.7789 77.4878L47.2374 78.4122L49.7024 79.8408Z" fill="white"/>
<path d="M48.8994 75.5173C47.6762 74.8077 46.7145 73.1457 46.7145 71.7358C46.7145 70.9421 47.0133 70.3445 47.5455 70.0364C48.0777 69.7283 48.75 69.7749 49.4409 70.1671C50.6641 70.8767 51.6259 72.5388 51.6259 73.9487C51.6259 74.7424 51.3271 75.3399 50.7948 75.6574C50.5614 75.7881 50.3 75.8628 50.0292 75.8628C49.665 75.8441 49.2822 75.7321 48.8994 75.5173ZM48.0777 70.9608C47.891 71.0728 47.7883 71.3529 47.7883 71.7358C47.7883 72.7629 48.5446 74.0701 49.4316 74.5836C49.7678 74.7797 50.0572 74.8264 50.2533 74.7143C50.44 74.6116 50.5427 74.3222 50.5427 73.9393C50.5427 72.9123 49.7864 71.605 48.8994 71.0915C48.6846 70.9701 48.4792 70.9047 48.3111 70.9047C48.2271 70.9047 48.1431 70.9234 48.0777 70.9608Z" fill="white"/>
<path d="M46.3405 71.7918C46.3405 73.0149 47.1995 74.4995 48.2546 75.1065C49.3098 75.7134 50.1688 75.2185 50.1688 74.0047C50.1688 72.7815 49.3098 71.2969 48.2546 70.69C47.1995 70.0737 46.3405 70.5686 46.3405 71.7918Z" fill="#00C5F6"/>
<path d="M47.9927 75.5735C46.7695 74.8639 45.8077 73.2019 45.8077 71.792C45.8077 70.9983 46.1065 70.4007 46.6388 70.0833C47.171 69.7751 47.8433 69.8218 48.5342 70.214C49.7574 70.9236 50.7191 72.5856 50.7191 73.9956C50.7191 74.7892 50.4203 75.3868 49.8881 75.7043C49.6547 75.835 49.3932 75.9097 49.1225 75.9097C48.7583 75.9097 48.3755 75.7976 47.9927 75.5735ZM47.171 71.017C46.9842 71.129 46.8815 71.4091 46.8815 71.792C46.8815 72.8191 47.6378 74.1263 48.5249 74.6398C48.861 74.8359 49.1505 74.8826 49.3465 74.7705C49.5333 74.6678 49.636 74.3784 49.636 73.9956C49.636 72.9685 48.8797 71.6613 47.9927 71.1477C47.7779 71.0263 47.5725 70.961 47.4044 70.961C47.311 70.961 47.2363 70.9796 47.171 71.017Z" fill="#060607"/>
<path d="M48.7967 79.8963V75.097L47.7229 74.4434V78.0382L46.8639 77.5434L46.3317 78.4771L48.7967 79.8963Z" fill="#060607"/>
<path d="M61.5025 71.9326L57.186 74.5568L57.6226 75.2749L61.9391 72.6507L61.5025 71.9326Z" fill="#00C5F6"/>
<path d="M61.5015 80.6816L57.185 83.3059L57.6216 84.024L61.938 81.3997L61.5015 80.6816Z" fill="#00C5F6"/>
<path d="M55.8548 67.1806C55.0238 67.1806 54.3515 66.5085 54.3515 65.6774V59.16C54.3515 57.3205 53.0536 55.0703 51.4663 54.1553L48.7118 52.568C48.1889 52.2692 47.7968 52.2224 47.6474 52.3158C47.4886 52.4091 47.3299 52.7641 47.3299 53.371V59.8884C47.3299 60.7194 46.6576 61.3917 45.8266 61.3917C44.9956 61.3917 44.3233 60.7194 44.3233 59.8884V53.371C44.3233 51.7089 44.9862 50.3737 46.1441 49.7108C47.3019 49.0385 48.7865 49.1319 50.2244 49.9629L52.9789 51.5502C55.3973 52.9415 57.3767 56.3681 57.3767 59.1693V65.6868C57.3581 66.5085 56.6858 67.1806 55.8548 67.1806Z" fill="#060607"/>
<path d="M46.2854 54.9949H45.6599V52.8754C45.6599 52.0163 46.0987 51.2507 46.8457 50.8212C47.5833 50.3917 48.4704 50.3823 49.2173 50.8025L52.1025 52.4365L51.7944 52.9781L48.9092 51.3441C48.3583 51.0359 47.7047 51.0359 47.1631 51.3627C46.6216 51.6802 46.2948 52.2498 46.2948 52.8754V54.9949H46.2854Z" fill="#00C5F6"/>
<path d="M55.7145 59.7941C55.6678 57.5065 54.6687 55.7511 54.6594 55.7324L55.2009 55.415C55.2476 55.4897 56.2934 57.3198 56.3401 59.7754L55.7145 59.7941Z" fill="#00C5F6"/>
<path d="M11.5401 119.421L16.1153 116.461C16.1527 116.433 16.162 116.377 16.134 116.34L10.3263 109.29C10.2796 109.234 10.1955 109.262 10.1862 109.328L9.26181 113.623V113.632L9.03772 116.573C9.03772 116.592 9.04706 116.62 9.05639 116.629L11.4374 119.402C11.4561 119.43 11.5027 119.44 11.5401 119.421Z" fill="#060607"/>
<path d="M11.4943 119.925C11.3262 119.925 11.1675 119.851 11.0554 119.72L8.5437 116.797L8.53436 116.536L8.75846 113.585L9.75754 108.907L10.1217 108.777C10.3364 108.73 10.5605 108.795 10.7006 108.973L16.6484 116.2L16.6297 116.48C16.6017 116.648 16.5084 116.788 16.3683 116.881L11.7931 119.841C11.709 119.897 11.6063 119.925 11.4943 119.925ZM9.53345 116.433L11.569 118.805L15.4532 116.293L10.4858 110.261L9.73887 113.716L9.53345 116.433Z" fill="#060607"/>
<path d="M28.8715 98.1044L7.0317 85.4898C6.48081 85.1723 5.98593 85.1257 5.60311 85.2937L1.32666 87.8521C1.2613 87.8895 1.24262 87.9828 1.29864 88.0389L6.40611 93.4358C6.42478 93.4545 6.43412 93.4825 6.43412 93.5198V102.437C6.43412 103.856 7.44254 105.602 8.67506 106.312L11.9337 108.188C12.0178 108.3 12.0831 108.394 12.1578 108.506C12.3166 109.449 13.2223 113.38 17.2186 116.116C17.3774 116.218 17.4801 116.069 17.3774 115.873C16.8545 114.874 15.8647 112.698 16.1635 110.99C16.3316 110.915 16.3596 110.906 16.5277 110.831L23.2691 114.724C23.2972 114.734 23.3065 114.762 23.3158 114.78L26.1263 122.288C26.1543 122.353 26.229 122.381 26.2944 122.353L30.5242 119.813C30.879 119.57 31.1031 119.104 31.1031 118.45V101.979C31.1124 100.56 30.104 98.814 28.8715 98.1044Z" fill="white"/>
<path d="M26.3592 122.904L26.0417 122.83C25.8736 122.764 25.7429 122.634 25.6776 122.466L22.9137 115.089L16.6298 111.457C16.5458 112.988 17.4235 114.865 17.8343 115.64C18.0024 115.948 17.9557 116.294 17.7316 116.499C17.5262 116.686 17.2087 116.695 16.9659 116.527C12.9883 113.81 11.9518 109.982 11.7184 108.703L11.6157 108.562L8.45038 106.732C7.05913 105.929 5.96668 104.034 5.96668 102.428V93.6603L0.943246 88.3754C0.812524 88.2353 0.756501 88.0486 0.784513 87.8618C0.812524 87.6751 0.924571 87.5164 1.0833 87.423L5.35042 84.8739C5.95734 84.6125 6.62028 84.6872 7.27389 85.07L29.1137 97.6846C30.5049 98.4876 31.5974 100.383 31.5974 101.989V118.46C31.5974 119.263 31.3173 119.889 30.8037 120.234L26.3592 122.904ZM16.5644 110.29L23.6701 114.389L23.7821 114.613L26.4339 121.7L30.2715 119.394C30.4862 119.254 30.6076 118.908 30.6076 118.451V101.98C30.6076 100.738 29.6926 99.1599 28.6188 98.5343L6.77901 85.9197C6.39619 85.6956 6.05071 85.6396 5.7986 85.7423L1.98902 88.0299L6.90974 93.2307L6.93775 93.5109V102.428C6.93775 103.67 7.8528 105.248 8.92658 105.873L12.3347 107.89L12.6521 108.413C12.7642 109.085 13.4458 112.232 16.3403 114.79C15.8641 113.633 15.4626 112.167 15.6867 110.897L15.7334 110.635L16.5644 110.29Z" fill="#060607"/>
<path d="M24.5844 100.747L2.67924 88.1043C1.47473 87.4133 0.503662 87.9735 0.503662 89.3648V105.901C0.503662 107.293 1.47473 108.983 2.67924 109.674L6.04997 111.616C6.13401 111.662 6.19937 111.775 6.21805 111.877C6.36744 112.755 7.2358 116.751 11.2882 119.524C11.4469 119.627 11.5496 119.478 11.4469 119.282C10.9053 118.245 9.85956 115.958 10.2704 114.221C10.2891 114.137 10.3638 114.109 10.4478 114.165L24.5844 122.326C25.7889 123.017 26.7599 122.456 26.7599 121.065V104.529C26.7599 103.138 25.7889 101.448 24.5844 100.747Z" fill="#00C5F6"/>
<path d="M25.556 123.109C25.1732 123.109 24.753 122.988 24.3328 122.745L10.6725 114.864C10.5884 116.386 11.4661 118.254 11.877 119.048C12.0357 119.356 11.9983 119.701 11.7649 119.907C11.5502 120.093 11.242 120.103 10.9993 119.935C6.84419 117.096 5.89179 112.95 5.73306 112.017L2.42768 110.112C1.06444 109.328 0 107.479 0 105.91V89.3646C0 88.5056 0.317466 87.852 0.887037 87.5252C1.45661 87.1984 2.18491 87.2451 2.92255 87.6746L24.8277 100.317C26.1909 101.101 27.2554 102.95 27.2554 104.519V121.055C27.2554 121.914 26.9379 122.568 26.3683 122.895C26.1256 123.044 25.8548 123.109 25.556 123.109ZM10.3737 113.641C10.4857 113.641 10.5978 113.669 10.7005 113.735L24.837 121.895C25.2479 122.138 25.6307 122.194 25.8828 122.045C26.1349 121.905 26.275 121.541 26.275 121.064V104.528C26.275 103.324 25.3879 101.792 24.3422 101.185L2.43702 88.5336C2.01684 88.2908 1.63401 88.2348 1.39125 88.3842C1.13914 88.5243 0.999083 88.8884 0.999083 89.3646V105.901C0.999083 107.105 1.88612 108.637 2.93189 109.243L6.30263 111.186C6.50805 111.307 6.66678 111.54 6.71347 111.793C6.82551 112.465 7.49779 115.63 10.4017 118.198C9.89746 116.965 9.47729 115.415 9.78541 114.099L9.84144 113.856L10.1309 113.679C10.2056 113.651 10.2896 113.641 10.3737 113.641Z" fill="#060607"/>
<path d="M25.8363 101.419L24.9026 100.896L29.1323 98.2539L29.6459 99.1036L25.8363 101.419Z" fill="#060607"/>
<path d="M8.7095 86.5293L4.89481 88.8461L5.40858 89.6921L9.22327 87.3752L8.7095 86.5293Z" fill="#060607"/>
<path d="M30.7021 102.403L26.4968 105.064L27.026 105.901L31.2314 103.24L30.7021 102.403Z" fill="#060607"/>
<path d="M31.1115 105.107L26.7604 107.74V122.082L30.9715 119.776L31.1115 118.749V105.107Z" fill="#060607"/>
<path d="M7.93664 99.6733L7.76857 101.289L9.27186 101.672L9.40258 102.923L8.03935 102.241L8.93572 104.146L8.02067 104.183L7.38574 102.363L6.83485 103.492L5.88245 102.391L6.76948 101.522L5.40625 100.617L5.56498 99.5426L7.04026 100.878L6.87219 99.0664L7.93664 99.6733Z" fill="white"/>
<path d="M14.1554 103.258L13.9873 104.874L15.4906 105.256L15.6213 106.508L14.2487 105.826L15.1451 107.731L14.2301 107.768L13.6045 105.947L13.0536 107.077L12.1012 105.975L12.9882 105.107L11.625 104.201L11.7837 103.128L13.259 104.463L13.0909 102.651L14.1554 103.258Z" fill="white"/>
<path d="M20.383 106.854L20.2149 108.469L21.7182 108.852L21.8489 110.103L20.4763 109.421L21.3727 111.326L20.4577 111.363L19.8321 109.543L19.2812 110.672L18.3288 109.571L19.2158 108.702L17.8526 107.797L18.0113 106.723L19.4866 108.058L19.3185 106.247L20.383 106.854Z" fill="white"/>
<path d="M77.9354 34.6931L82.5106 31.7332C82.548 31.7052 82.5573 31.6492 82.5293 31.6119L76.7215 24.5622C76.6748 24.5062 76.5908 24.5342 76.5815 24.5996L75.6571 28.8947V28.9041L75.433 31.8453C75.433 31.864 75.4423 31.892 75.4517 31.9013L77.8327 34.6745C77.8513 34.7118 77.898 34.7211 77.9354 34.6931Z" fill="#060607"/>
<path d="M77.8868 35.2062C77.7188 35.2062 77.56 35.1315 77.448 35.0008L74.9363 32.0782L74.9269 31.8168L75.151 28.8662L76.1501 24.1883L76.5143 24.0576C76.729 24.0109 76.9531 24.0762 77.0932 24.2536L83.041 31.4807L83.0223 31.7608C82.9943 31.9289 82.9009 32.0689 82.7609 32.1623L78.1856 35.1222C78.1016 35.1689 77.9896 35.2062 77.8868 35.2062ZM75.926 31.7141L77.9615 34.0857L81.8458 31.574L76.8691 25.5422L76.1221 28.997L75.926 31.7141Z" fill="#060607"/>
<path d="M95.2649 13.3851L73.4251 0.770516C72.8742 0.45305 72.3793 0.406363 71.9965 0.565096L67.72 3.12349C67.6547 3.16084 67.6453 3.25422 67.692 3.31024L72.7995 8.70716C72.8182 8.72583 72.8275 8.75384 72.8275 8.79119V17.7082C72.8275 19.1275 73.8359 20.8736 75.0684 21.5832L78.3271 23.46C78.4112 23.572 78.4765 23.6654 78.5512 23.7774C78.7099 24.7205 79.6157 28.6515 83.612 31.3873C83.7707 31.49 83.8734 31.3406 83.7707 31.1445C83.2478 30.1454 82.2581 27.9699 82.5569 26.2611C82.725 26.1865 82.753 26.1771 82.921 26.1024L89.6625 29.996C89.6905 30.0054 89.6999 30.0334 89.7092 30.0521L92.5197 37.5592C92.5477 37.6245 92.6224 37.6526 92.6878 37.6245L96.9175 35.0848C97.2724 34.8421 97.4965 34.3752 97.4965 33.7216V17.2507C97.5058 15.8315 96.4974 14.0947 95.2649 13.3851Z" fill="white"/>
<path d="M92.7528 38.1847L92.4353 38.11C92.2673 38.0447 92.1365 37.914 92.0712 37.7459L89.3074 30.3695L83.0234 26.7373C82.9394 28.2686 83.8171 30.1454 84.2279 30.9204C84.396 31.2285 84.3493 31.574 84.1159 31.7794C83.9104 31.9661 83.593 31.9755 83.3502 31.8074C79.3726 29.0903 78.3361 25.262 78.1027 23.9828L78 23.8427L74.8347 22.0127C73.4434 21.2097 72.351 19.3142 72.351 17.7082V8.94053L67.3462 3.65566C67.2155 3.5156 67.1595 3.32886 67.1875 3.14211C67.2155 2.95537 67.3275 2.79664 67.4863 2.70326L71.7534 0.154197C72.3603 -0.107245 73.0232 -0.0325482 73.6768 0.350278L95.5166 12.9649C96.9079 13.7679 98.0003 15.6633 98.0003 17.2693V33.7402C98.0003 34.5432 97.7202 35.1688 97.2067 35.5143L92.7528 38.1847ZM82.958 25.5608L90.0637 29.6598L90.1757 29.8839L92.8275 36.9709L96.6651 34.6646C96.8799 34.5245 97.0012 34.1791 97.0012 33.7215V17.2507C97.0012 16.0088 96.0862 14.4308 95.0124 13.8052L73.1726 1.19063C72.7898 0.966537 72.4443 0.910518 72.1922 1.01323L68.3826 3.30085L73.3034 8.50168L73.3314 8.7818V17.6989C73.3314 18.9407 74.2464 20.5187 75.3202 21.1443L78.7376 23.1611L79.0551 23.684C79.1671 24.3563 79.8488 27.5029 82.7433 30.0613C82.2671 28.9035 81.8656 27.4376 82.0897 26.1677L82.1364 25.9063L82.958 25.5608Z" fill="#060607"/>
<path d="M90.9787 16.0271L69.0735 3.38457C67.869 2.69361 66.8979 3.25385 66.8979 4.6451V21.1813C66.8979 22.5725 67.869 24.2626 69.0735 24.9535L72.4443 26.8957C72.5283 26.9424 72.5937 27.0544 72.6123 27.1571C72.7617 28.0348 73.6301 32.0311 77.6824 34.8043C77.8412 34.907 77.9439 34.7576 77.8412 34.5615C77.2996 33.5251 76.2539 31.2375 76.6647 29.5008C76.6834 29.4167 76.7581 29.3887 76.8421 29.4447L90.9787 37.6055C92.1832 38.2964 93.1542 37.7362 93.1542 36.3449V19.8087C93.1542 18.4081 92.1832 16.7181 90.9787 16.0271Z" fill="#00C5F6"/>
<path d="M91.9491 38.3901C91.5662 38.3901 91.1461 38.2687 90.7259 38.0259L77.0655 30.1453C76.9815 31.6673 77.8592 33.5347 78.27 34.3284C78.4288 34.6365 78.3914 34.982 78.158 35.1874C77.9432 35.3741 77.6351 35.3835 77.3923 35.2154C73.2373 32.3769 72.2849 28.2312 72.1261 27.2974L68.8207 25.3926C67.4575 24.6083 66.3931 22.7595 66.3931 21.1909V4.65468C66.3931 3.79566 66.7105 3.14206 67.2801 2.81526C67.8497 2.48845 68.578 2.53514 69.3156 2.96465L91.2208 15.6072C92.584 16.3916 93.6484 18.2403 93.6484 19.809V36.3452C93.6484 37.2042 93.331 37.8578 92.7614 38.1846C92.5186 38.3154 92.2385 38.3901 91.9491 38.3901ZM76.7574 28.9128C76.8694 28.9128 76.9815 28.9408 77.0842 29.0062L91.2208 37.1669C91.6316 37.4097 92.0144 37.4657 92.2665 37.3163C92.5186 37.1762 92.6587 36.8121 92.6587 36.3359V19.7997C92.6587 18.5952 91.7717 17.0638 90.7259 16.4569L68.8207 3.81434C68.4006 3.57157 68.0271 3.51554 67.775 3.66494C67.5229 3.805 67.3828 4.16915 67.3828 4.64535V21.1816C67.3828 22.3861 68.2699 23.9174 69.3156 24.5243L72.6864 26.4664C72.8918 26.5878 73.0505 26.8212 73.0972 27.0733C73.2092 27.7456 73.8815 30.9109 76.7854 33.4787C76.2812 32.2462 75.861 30.6962 76.1691 29.3796L76.2252 29.1369L76.5146 28.9595C76.5987 28.9315 76.6827 28.9128 76.7574 28.9128Z" fill="#060607"/>
<path d="M92.2205 16.7L91.2961 16.1678L95.5259 13.5254L96.0394 14.375L92.2205 16.7Z" fill="#060607"/>
<path d="M75.0958 1.80957L71.2811 4.12642L71.7949 4.97235L75.6096 2.65551L75.0958 1.80957Z" fill="#060607"/>
<path d="M97.091 17.6719L92.8856 20.333L93.4148 21.1693L97.6202 18.5082L97.091 17.6719Z" fill="#060607"/>
<path d="M97.5061 20.3877L93.1549 23.0208V37.3534L97.366 35.0565L97.5061 34.0294V20.3877Z" fill="#060607"/>
<path d="M85.0393 26.6631C84.5257 26.6631 83.9748 26.4951 83.3959 26.1683C81.4818 25.0665 79.9879 22.4707 79.9879 20.2672C79.9879 19.128 80.3987 18.2596 81.1363 17.8301C81.874 17.4006 82.8264 17.4847 83.8161 18.0542C85.7303 19.156 87.2242 21.7518 87.2242 23.9554C87.2242 25.0945 86.8134 25.9629 86.0757 26.3924C85.7676 26.5698 85.4128 26.6631 85.0393 26.6631ZM82.1821 18.3997C81.9487 18.3997 81.7433 18.4557 81.5565 18.5584C81.0896 18.8292 80.8282 19.4361 80.8282 20.2672C80.8282 22.1719 82.1728 24.4969 83.8161 25.4493C84.5351 25.8601 85.1887 25.9442 85.6556 25.6734C86.1224 25.4026 86.3839 24.7957 86.3839 23.9647C86.3839 22.0599 85.0393 19.7349 83.3959 18.7825C82.9571 18.5211 82.5463 18.3997 82.1821 18.3997Z" fill="white"/>
<path d="M80.2033 20.6209L73.6579 16.8487V18.1652H72.8269V15.4014L80.6235 19.9019L80.2033 20.6209Z" fill="white"/>
<path d="M75.237 17.0264H74.3966V19.0619H75.237V17.0264Z" fill="white"/>
<path d="M76.7401 17.9043H75.8997V19.9398H76.7401V17.9043Z" fill="white"/>
</g>
<defs>
<clipPath id="clip0_11_2051">
<rect width="98" height="127" fill="white"/>
</clipPath>
</defs>
</svg>
